<svg width="71" height="60" viewBox="0 0 71 60" fill="none" xmlns="http://www.w3.org/2000/svg">
<g clip-path="url(#clip0_106_23)">
<path d="M69.3831 56.7097C70.5554 57.0143 71.1011 57.6846 70.9798 58.558C70.8585 59.4923 70.1916 59.9798 68.9991 59.9798C46.6664 59.9798 24.3336 59.9798 1.98064 59.9798C0.808424 59.9798 0.121262 59.472 0.0202092 58.5377C-0.080844 57.6643 0.444633 57.0346 1.61685 56.6893C1.61685 56.405 1.61685 56.1003 1.61685 55.816C1.61685 49.7835 1.61685 43.751 1.61685 37.7185C1.61685 35.342 2.89012 34.0421 5.25477 34.0421C7.68004 34.0421 10.1053 34.0421 12.5104 34.0421C14.8548 34.0421 16.1483 35.342 16.1483 37.7185C16.1483 43.7306 16.1483 49.7225 16.1483 55.7347C16.1483 56.0394 16.1483 56.3441 16.1483 56.7097C17.1993 56.7097 18.2098 56.7097 19.3214 56.7097C19.3416 56.405 19.3618 56.08 19.3618 55.755C19.3618 46.5539 19.3618 37.3529 19.3618 28.1721C19.3618 25.5519 20.5947 24.3129 23.2018 24.3129C25.5665 24.3129 27.9513 24.3129 30.316 24.3129C32.5796 24.3129 33.873 25.6128 33.873 27.8877C33.873 37.1294 33.873 46.3914 33.873 55.6331C33.873 55.9581 33.873 56.2831 33.873 56.6893C34.9442 56.6893 35.9952 56.6893 37.127 56.6893C37.127 56.3847 37.127 56.08 37.127 55.7956C37.127 48.1992 37.1876 40.6027 37.1068 32.9859C37.0865 30.447 38.7438 29.0658 40.9266 29.147C43.2912 29.2283 45.6558 29.1673 48.0407 29.1673C50.3447 29.1673 51.6584 30.4876 51.6584 32.8031C51.6584 40.4605 51.6584 48.0976 51.6584 55.755C51.6584 56.0597 51.6584 56.3644 51.6584 56.7097C52.7296 56.7097 53.7603 56.7097 54.8719 56.7097C54.8719 56.405 54.8719 56.1003 54.8719 55.816C54.8719 44.4212 54.9123 33.0062 54.8517 21.6115C54.8315 19.5397 56.125 17.7117 58.6311 17.8132C61.0564 17.9148 63.4614 17.8336 65.8867 17.8336C68.1099 17.8336 69.4034 19.1538 69.4034 21.3881C69.4034 32.8437 69.4034 44.2994 69.4034 55.755C69.3831 56.0597 69.3831 56.3644 69.3831 56.7097ZM66.109 56.73C66.109 44.7868 66.109 32.9656 66.109 21.124C63.421 21.124 60.7734 21.124 58.1258 21.124C58.1258 33.0062 58.1258 44.8478 58.1258 56.73C60.8138 56.73 63.4412 56.73 66.109 56.73ZM30.6191 56.73C30.6191 46.9805 30.6191 37.3122 30.6191 27.6237C27.9513 27.6237 25.3037 27.6237 22.6763 27.6237C22.6763 37.3529 22.6763 47.0211 22.6763 56.73C25.3442 56.73 27.9715 56.73 30.6191 56.73ZM48.3641 32.4984C45.6559 32.4984 43.0285 32.4984 40.3809 32.4984C40.3809 40.6027 40.3809 48.646 40.3809 56.7097C43.0487 56.7097 45.6761 56.7097 48.3641 56.7097C48.3641 48.6257 48.3641 40.5824 48.3641 32.4984ZM12.8742 56.73C12.8742 50.21 12.8742 43.7916 12.8742 37.3528C10.1862 37.3528 7.55878 37.3528 4.91119 37.3528C4.91119 43.8322 4.91119 50.2709 4.91119 56.73C7.57899 56.73 10.2064 56.73 12.8742 56.73Z" fill="#004F9F"/>
<path d="M65.2804 4.04208C63.8859 3.75772 62.6328 3.5343 61.4 3.27025C60.2682 3.02651 59.6618 2.15312 59.9448 1.19848C60.1873 0.386022 60.8947 -0.121764 61.7435 0.0407277C64.3911 0.548514 67.0387 1.07661 69.6661 1.62502C70.6767 1.82813 71.1415 2.57966 70.9394 3.59523C70.4543 6.17478 69.9288 8.75434 69.4034 11.3339C69.1811 12.3901 68.3928 12.9182 67.4227 12.7151C66.5537 12.5323 66.0484 11.6792 66.2505 10.6433C66.4728 9.42461 66.7356 8.22624 67.0185 6.82475C66.5941 7.10911 66.3111 7.29191 66.0484 7.47472C59.0555 12.3088 52.0626 17.143 45.09 22.0177C44.1199 22.688 43.2912 22.7489 42.2403 22.2614C37.0461 19.8241 31.7914 17.4679 26.577 15.0712C26.1122 14.8478 25.7686 14.8681 25.3442 15.1321C17.9673 19.6006 10.5904 24.0489 3.19329 28.4971C2.95076 28.6392 2.72845 28.8017 2.48592 28.9236C1.63707 29.3705 0.687172 29.147 0.242538 28.3549C-0.222307 27.5627 0.0202208 26.6487 0.848857 26.1206C2.8295 24.9019 4.83035 23.7239 6.811 22.5255C12.7327 18.971 18.6949 15.3962 24.6166 11.8011C25.3846 11.3339 26.0717 11.273 26.8802 11.6589C32.1754 14.0962 37.511 16.5133 42.8062 18.9507C43.2508 19.1538 43.554 19.1335 43.9582 18.8491C50.8298 14.0759 57.7216 9.30274 64.6135 4.52956C64.8156 4.40769 64.9772 4.26551 65.2804 4.04208Z" fill="#004F9F"/>
</g>
<defs>
<clipPath id="clip0_106_23">
<rect width="71" height="60" fill="white"/>
</clipPath>
</defs>
</svg>
