<svg width="75" height="76" viewBox="0 0 75 76" fill="none" xmlns="http://www.w3.org/2000/svg">
<g clip-path="url(#clip0_107_70)">
<path d="M64.0473 50.6526C71.8707 51.9633 75.4798 58.8128 74.9583 64.3516C74.3533 70.7361 69.5132 75.5561 63.338 75.9789C57.3505 76.4017 51.0292 72.1525 50.0487 64.6053C48.3588 64.6053 46.6481 64.6053 44.9374 64.6053C44.6453 64.6053 44.3741 64.6053 44.0821 64.6053C42.9764 64.5842 42.5383 64.1614 42.5383 62.9986C42.5383 58.1786 42.5383 53.3375 42.5383 48.5174C42.5383 45.748 42.5383 42.9786 42.5383 40.2092C42.5383 39.9344 42.5383 39.6384 42.5383 39.279C41.37 39.279 40.2434 39.279 39.1377 39.279C38.1363 39.279 37.573 38.8351 37.5522 38.0529C37.5313 37.2495 38.1154 36.7633 39.1586 36.7422C40.2434 36.7422 41.3491 36.7422 42.5591 36.7422C42.5591 36.4039 42.5591 36.108 42.5591 35.7909C42.5591 28.2648 42.5591 20.76 42.5591 13.234C42.5591 11.7753 42.9138 11.3948 44.3324 11.3948C46.2309 11.3948 48.1294 11.3948 50.0695 11.3948C50.6328 7.27236 52.5522 4.01672 56.057 1.83926C58.4771 0.338282 61.1474 -0.317072 63.9847 0.0845966C70.2017 0.972497 74.7079 5.85595 75.0209 11.9444C75.3338 17.906 71.3491 24.1425 64.0473 25.284C71.2657 27.0387 75.2712 31.4571 74.9374 39.1733C74.6662 44.0991 70.9319 49.511 64.0473 50.6526ZM68.8039 20.4429C71.975 18.1808 73.3102 13.2974 71.9124 9.25956C70.3894 4.90462 66.2796 2.21978 61.6064 2.55803C57.3296 2.854 53.5953 6.25762 52.6982 10.6337C51.7594 15.2 54.242 19.2379 56.2031 20.3583C56.7038 16.3205 59.1029 13.9105 62.5869 13.9527C65.9666 13.9739 68.3449 16.4262 68.8039 20.4429ZM56.2239 45.748C56.516 42.133 58.5605 39.7441 61.7524 39.3213C63.63 39.0676 65.299 39.6384 66.7177 40.928C68.1154 42.1964 68.6996 43.8665 68.8039 45.7903C72.0167 43.2957 73.2684 38.6025 71.8915 34.6281C70.4312 30.4635 66.509 27.7575 62.1488 27.8843C57.8929 28.0112 54.1586 31.0131 52.9485 35.2835C51.8428 39.0888 53.2823 43.7608 56.2239 45.748ZM56.2031 71.0743C56.3908 66.9308 59.249 64.8801 61.8776 64.6265C63.7344 64.4362 65.3616 65.0281 66.7385 66.2966C68.0946 67.565 68.6787 69.2139 68.783 71.0954C71.9333 68.7277 73.2267 64.0557 71.9124 60.1024C70.5146 55.9166 66.6342 53.126 62.274 53.1895C57.9972 53.274 54.2003 56.2126 52.9485 60.4195C51.822 64.3305 53.2198 68.9814 56.2031 71.0743ZM45.0626 13.9739C45.0626 21.5633 45.0626 29.0893 45.0626 36.6788C46.6273 36.6788 48.1294 36.6999 49.6314 36.6576C49.8192 36.6576 50.0904 36.2982 50.1321 36.0657C51.0292 30.548 55.16 26.3622 60.6259 25.4743C60.751 25.4532 60.8554 25.3686 61.0014 25.3052C54.7427 24.0368 51.1127 20.2737 50.0278 13.9527C48.3797 13.9739 46.7524 13.9739 45.0626 13.9739ZM60.9597 50.6949C54.7427 49.3842 51.1127 45.6 50.0278 39.3425C48.338 39.3425 46.6899 39.3425 45.0417 39.3425C45.0417 46.9107 45.0417 54.4156 45.0417 62.0262C46.523 62.0262 47.9833 62.005 49.4228 62.0262C49.9235 62.0262 50.0904 61.8571 50.153 61.3708C50.612 58.3477 52.0097 55.8109 54.2837 53.7814C56.2031 52.0902 58.4562 51.1177 60.9597 50.6949ZM62.274 48.1369C63.338 48.0101 64.1307 47.9466 64.9235 47.8198C66.217 47.6084 66.2587 47.545 66.2587 46.2342C66.2587 46.0017 66.2587 45.7692 66.2587 45.5155C66.1961 43.6128 64.7775 42.0484 62.9207 41.837C61.064 41.6256 59.3115 42.8306 58.9152 44.7121C58.7483 45.4098 58.7691 46.1708 58.79 46.9107C58.79 47.1433 59.0403 47.5027 59.249 47.5661C60.3129 47.7986 61.3978 47.9678 62.274 48.1369ZM62.4826 73.4843C62.4826 73.4632 62.5035 73.4209 62.5035 73.3998C62.9207 73.3786 63.338 73.3575 63.7552 73.3152C64.1725 73.2729 64.5897 73.2095 64.9861 73.1461C66.2587 72.9135 66.2587 72.8924 66.2587 71.5817C66.2587 71.2857 66.2587 71.0109 66.2587 70.7149C66.1127 68.326 63.8387 66.6771 61.5647 67.2902C59.4784 67.861 58.1433 70.3555 58.79 72.5119C58.8317 72.681 59.1029 72.8712 59.2907 72.9135C60.3338 73.1249 61.4186 73.2941 62.4826 73.4843ZM62.2949 22.7895C63.338 22.6626 64.1725 22.5992 64.9861 22.4512C66.2587 22.2398 66.2587 22.2187 66.2378 20.8868C66.2378 20.6543 66.2378 20.4217 66.2378 20.168C66.1753 18.2654 64.7566 16.701 62.8999 16.4896C61.0223 16.2782 59.2698 17.5043 58.8526 19.4281C58.7065 20.1046 58.7065 20.8445 58.7483 21.5422C58.7691 21.7959 59.0403 22.1764 59.2698 22.2187C60.3547 22.4935 61.4186 22.6415 62.2949 22.7895Z" fill="#004F9F"/>
<path d="M7.53129 47.4392C6.32128 48.0312 5.19472 48.306 3.96384 48.01C1.71071 47.4815 0.0625874 45.5577 0.0417251 43.2111C0.0208628 38.222 -0.0208619 33.2328 0.0625874 28.2648C0.125174 23.3391 4.33936 19.0899 9.20028 19.0264C14.7497 18.963 20.299 18.963 25.8275 19.0264C30.6885 19.0899 34.8818 23.318 34.9652 28.2648C35.0487 33.2751 35.0278 38.2854 34.9652 43.2957C34.9235 46.5302 31.5021 48.7077 28.3519 47.5872C28.0807 47.5027 27.8303 47.3758 27.4965 47.249C27.4965 47.6084 27.4965 47.9043 27.4965 48.1792C27.4965 55.5149 27.4965 62.8506 27.4965 70.1864C27.4965 73.6111 24.8261 76.1903 21.5299 75.9789C19.9235 75.8732 18.6092 75.1333 17.5035 73.886C16.4186 75.1333 15.1043 75.8732 13.4979 75.9789C10.2225 76.2114 7.53129 73.6323 7.51043 70.2075C7.48957 62.9775 7.51043 55.7475 7.51043 48.5174C7.53129 48.2214 7.53129 47.9043 7.53129 47.4392ZM22.573 21.3942C22.3644 23.2968 21.9889 24.2481 20.9875 25.1995C20.6328 25.5377 20.5702 25.876 20.6537 26.3199C21.1961 29.2796 21.7177 32.2181 22.2601 35.1778C22.4687 36.2771 22.3644 37.313 21.8637 38.3277C20.8206 40.4417 19.7775 42.5769 18.7552 44.7121C18.5049 45.2406 18.1711 45.6423 17.5452 45.6634C16.8776 45.6846 16.5229 45.2618 16.2517 44.7121C15.2295 42.5558 14.1864 40.4206 13.1433 38.3066C12.6426 37.2918 12.5382 36.2559 12.7469 35.1566C13.2893 32.1758 13.8317 29.195 14.3533 26.2142C14.395 25.9394 14.3741 25.5166 14.2072 25.3686C13.1224 24.3327 12.6008 23.0643 12.4757 21.5844C11.2865 21.5844 10.1391 21.521 9.01252 21.6056C5.54937 21.8381 2.60779 24.8401 2.5452 28.3494C2.46175 33.2751 2.52434 38.222 2.52434 43.1477C2.52434 44.1202 3.00417 44.8601 3.83867 45.3252C5.50765 46.2131 7.46871 44.9658 7.48957 42.9575C7.53129 40.1669 7.48957 37.3552 7.48957 34.5647C7.48957 33.5711 7.94854 32.9792 8.72045 32.9792C9.49235 32.9792 9.97218 33.55 9.97218 34.5436C9.97218 34.7761 9.97218 35.0086 9.97218 35.2623C9.97218 46.9319 9.97218 58.5803 9.97218 70.2498C9.97218 72.1102 11.3282 73.5055 13.0807 73.5055C14.854 73.5055 16.1891 72.1313 16.21 70.271C16.2309 68.6854 16.21 67.0999 16.21 65.5143C16.21 60.2292 16.21 54.9653 16.21 49.6801C16.21 48.75 16.6898 48.1792 17.4409 48.1792C18.1919 48.1792 18.6926 48.75 18.6926 49.659C18.6926 50.1664 18.6926 50.6526 18.6926 51.16C18.6926 57.481 18.6926 63.8231 18.6926 70.1441C18.6926 71.6874 19.4854 72.8712 20.7997 73.3152C22.9068 74.0128 24.9305 72.4907 24.9305 70.1653C24.9305 58.39 24.9305 46.6359 24.9305 34.8607C24.9305 34.5647 24.9096 34.2687 24.9513 33.9939C25.0974 33.3597 25.4937 32.9792 26.1613 32.958C26.8081 32.958 27.2253 33.3385 27.3922 33.9728C27.4548 34.2264 27.4339 34.5013 27.4339 34.755C27.4339 37.4398 27.4131 40.1458 27.4339 42.8306C27.4548 44.3105 28.5605 45.3675 29.9791 45.3463C31.5438 45.3252 32.42 44.4162 32.42 42.8095C32.42 38.0952 32.4409 33.3597 32.42 28.6454C32.3992 25.58 30.5007 22.7895 27.6008 21.9861C26.057 21.521 24.3046 21.5633 22.573 21.3942ZM17.5243 41.4776C18.2754 39.9344 18.9847 38.5814 19.5897 37.1861C19.7983 36.7422 19.9026 36.1502 19.8192 35.664C19.3394 32.7889 18.8178 29.9138 18.2754 27.0387C18.2337 26.8484 17.9416 26.6582 17.733 26.5947C17.4618 26.5102 17.128 26.5736 16.815 26.5736C16.2726 29.5333 15.751 32.4084 15.2295 35.2623C15.2086 35.3469 15.1878 35.4103 15.1878 35.4949C15.2086 35.9388 15.1252 36.4251 15.2921 36.8056C15.9597 38.3488 16.7107 39.8287 17.5243 41.4776ZM19.9861 21.5844C18.3171 21.5844 16.6898 21.5844 15.0626 21.5844C15.1669 23.0431 16.1892 24.0579 17.5243 24.0579C18.8595 24.0579 19.8609 23.0643 19.9861 21.5844Z" fill="#004F9F"/>
<path d="M26.2656 8.92126C26.2656 13.7836 22.3018 17.7791 17.5035 17.758C12.6426 17.7157 8.76217 13.7413 8.76217 8.81556C8.78303 3.99553 12.726 0.0211182 17.4826 0.0211182C22.3435 0.0211182 26.2656 3.99553 26.2656 8.92126ZM17.5661 2.55797C14.1029 2.53683 11.2865 5.34852 11.2656 8.85784C11.2448 12.3249 14.0403 15.1788 17.42 15.2C20.8832 15.2211 23.7204 12.4306 23.7413 8.9424C23.783 5.43308 20.9875 2.55797 17.5661 2.55797Z" fill="#004F9F"/>
<path d="M62.4826 12.6843C60.459 12.6843 58.7483 10.9719 58.7483 8.92127C58.7483 6.80723 60.4381 5.09485 62.5035 5.09485C64.548 5.09485 66.217 6.80723 66.2378 8.85785C66.2587 10.9719 64.5688 12.6843 62.4826 12.6843ZM63.7344 8.92127C63.7552 8.24478 63.2128 7.65285 62.5452 7.6317C61.8359 7.61056 61.2517 8.18136 61.2517 8.90013C61.2517 9.57663 61.815 10.1474 62.4826 10.1474C63.1502 10.1474 63.7135 9.59777 63.7344 8.92127Z" fill="#004F9F"/>
<path d="M66.2378 34.2265C66.217 36.3194 64.5063 38.0318 62.4409 38.0106C60.4172 37.9895 58.7483 36.256 58.7483 34.2054C58.7691 32.0913 60.4798 30.4001 62.5452 30.4212C64.5897 30.4424 66.2587 32.1547 66.2378 34.2265ZM63.7344 34.2054C63.7344 33.5289 63.1711 32.9581 62.5035 32.9581C61.7942 32.9581 61.2309 33.55 61.2517 34.2688C61.2726 34.9453 61.8567 35.4949 62.5243 35.4738C63.1919 35.4527 63.7552 34.8819 63.7344 34.2054Z" fill="#004F9F"/>
<path d="M66.2378 59.5528C66.2378 61.6457 64.5271 63.3581 62.4409 63.3369C60.4172 63.3158 58.7483 61.5823 58.7483 59.5317C58.7691 57.4176 60.4798 55.7264 62.5452 55.7475C64.5897 55.7687 66.2587 57.481 66.2378 59.5528ZM62.4826 58.2844C61.815 58.2844 61.2517 58.8552 61.2517 59.5317C61.2517 60.2504 61.8359 60.8212 62.5452 60.8001C63.2128 60.7789 63.7552 60.187 63.7344 59.5105C63.7344 58.834 63.1502 58.2632 62.4826 58.2844Z" fill="#004F9F"/>
</g>
<defs>
<clipPath id="clip0_107_70">
<rect width="75" height="76" fill="white"/>
</clipPath>
</defs>
</svg>
