<svg width="70" height="70" viewBox="0 0 70 70" fill="none" xmlns="http://www.w3.org/2000/svg">
<g clip-path="url(#clip0_107_60)">
<path d="M70 28.3723C69.9635 28.4092 69.927 28.4277 69.9087 28.483C68.9773 31.617 66.7493 32.8891 63.6264 32.0779C60.2661 31.193 56.8876 30.3081 53.5273 29.4416C53.3812 29.4047 53.2168 29.3863 52.9794 29.331C52.815 30.6768 52.8516 31.9673 53.1072 33.2578C53.4177 34.8801 54.0386 36.3734 54.897 37.7745C58.8964 44.3376 62.8777 50.9007 66.8771 57.4453C67.845 59.0492 68.0277 60.69 67.1876 62.3676C65.5805 65.6123 61.1062 65.8335 59.0608 62.7548C57.0154 59.676 55.0431 56.5788 53.0342 53.4816C51.7923 51.5643 50.5322 49.6286 49.2904 47.7113C49.1625 47.5269 49.0347 47.3426 48.779 47.1951C48.8886 48.08 48.9799 48.9834 49.1078 49.8683C49.7469 54.7353 50.3861 59.6207 51.0253 64.4877C51.3723 67.1793 49.6922 69.5759 47.1719 69.9446C44.4508 70.3502 42.1315 68.6357 41.6932 65.8888C40.5609 58.6989 39.3739 51.509 38.3146 44.3007C37.3102 37.4058 37.3467 30.5109 38.3512 23.616C38.4425 23.0076 38.5521 22.3992 38.6251 21.7724C38.6434 21.5696 38.6434 21.3484 38.5521 21.1825C37.4015 18.9702 36.2145 16.7764 35.0091 14.4719C34.863 14.6747 34.7535 14.8037 34.6804 14.9512C33.6029 16.9607 32.5437 18.9518 31.4845 20.9612C31.3566 21.2193 31.2836 21.588 31.3384 21.8646C32.4707 28.7411 32.6533 35.636 31.8497 42.5493C31.7402 43.5264 31.1192 44.0795 30.2792 43.9689C29.4939 43.8583 29.0556 43.1577 29.1286 42.2175C29.3295 39.7471 29.5121 37.2767 29.6948 34.7326C29.3478 34.6958 29.1286 34.6773 28.9277 34.6773C25.951 34.6773 22.9559 34.6773 19.9791 34.6589C19.5226 34.6589 19.3399 34.8064 19.1573 35.2488C18.6277 36.5762 18.1164 37.9589 17.3859 39.1756C13.4777 45.7018 9.49648 52.1912 5.53353 58.6805C5.33264 59.0123 5.13176 59.3626 5.04044 59.7313C4.8213 60.6715 5.29612 61.5749 6.13619 61.9436C6.97627 62.3307 7.94418 62.1095 8.51031 61.3168C9.11297 60.4872 9.66085 59.6023 10.2087 58.7358C14.1534 52.6705 18.0981 46.5867 22.0428 40.503C22.3533 40.0237 22.7002 39.6181 23.3212 39.5628C24.1612 39.489 24.8187 40.1896 24.7274 41.1114C24.563 42.7337 24.3256 44.356 24.1247 45.9599C23.4125 51.38 22.7002 56.8001 21.988 62.2201C21.8784 63.0682 21.7689 63.8978 21.641 64.7458C21.4767 65.9626 22.1341 66.9581 23.2664 67.1424C24.3987 67.3268 25.3483 66.6078 25.5492 65.3911C26.1153 61.9252 26.6449 58.4408 27.1928 54.9749C27.3572 53.8688 28.0511 53.2604 28.9095 53.4816C29.64 53.666 30.0417 54.2559 29.9322 55.104C29.713 56.7263 29.4391 58.3302 29.2017 59.9341C28.8912 61.8698 28.5808 63.7871 28.2886 65.7229C27.905 68.2117 25.951 69.9631 23.5586 69.9262C21.1297 69.8893 19.1573 68.1195 18.9382 65.6307C18.8469 64.5983 19.066 63.529 19.2121 62.4782C19.8513 57.4822 20.527 52.5046 21.1845 47.5085C21.2027 47.3795 21.2027 47.232 21.221 46.9001C20.9836 47.232 20.8375 47.4163 20.7096 47.6191C17.4772 52.5967 14.2447 57.5743 11.0123 62.552C9.62432 64.6905 7.15889 65.4279 4.98566 64.3955C2.44718 63.1972 1.51579 60.1 2.99505 57.6112C5.02218 54.2006 7.1041 50.8269 9.16776 47.4532C11.1401 44.2085 13.1125 40.9454 15.1031 37.7008C16.5458 35.341 17.2398 32.7969 17.0937 30.0316C17.0754 29.8103 17.0571 29.5707 17.0389 29.2388C15.9614 29.5154 14.9387 29.7735 13.8977 30.05C11.2679 30.7321 8.65641 31.4327 6.02662 32.0963C3.37856 32.7785 0.876605 31.3589 0.164369 28.8332C-0.547867 26.2523 0.876604 23.745 3.54292 22.9523C7.43283 21.7908 11.3227 20.6663 15.1944 19.5233C15.3405 19.4864 15.4683 19.4126 15.6509 19.3573C12.6011 17.2004 11.2497 14.3797 12.1993 10.6926C12.875 8.07475 15.1031 6.19431 17.8607 6.06526C21.641 5.89934 23.9421 8.001 25.3118 11.4853C25.4944 11.1904 25.6588 10.9507 25.8049 10.711C27.5215 7.92726 29.2382 5.12505 30.9731 2.34127C32.9637 -0.866524 36.9997 -0.866524 38.9904 2.34127C40.7435 5.16192 42.4785 8.001 44.2317 10.8217C44.3595 11.006 44.4691 11.2088 44.6335 11.4485C46.1675 7.66916 48.7425 5.47532 52.9246 6.15744C55.6275 6.5999 57.3259 8.46189 57.892 11.1535C58.6042 14.6194 57.2163 17.2925 54.2943 19.3389C54.5865 19.4311 54.8239 19.5233 55.0796 19.597C58.7503 20.6663 62.4028 21.7724 66.0918 22.8048C68.192 23.3947 69.4704 24.6852 69.9818 26.7869C70 27.3768 70 27.8746 70 28.3723ZM40.287 34.7142C40.4148 36.779 40.4514 38.8069 40.6888 40.7979C41.0358 43.8583 41.5106 46.9001 41.9671 49.942C42.7707 55.1409 43.5925 60.3213 44.4326 65.5201C44.6152 66.6815 45.5831 67.3821 46.6971 67.1977C47.7929 67.0318 48.4868 66.0363 48.3407 64.8748C48.2312 63.9899 48.1033 63.105 47.9937 62.2201C47.3363 57.1872 46.6606 52.1543 46.0031 47.1214C45.7475 45.1488 45.4735 43.1577 45.2361 41.1851C45.1448 40.4845 45.437 39.9683 46.0945 39.7102C46.7154 39.4521 47.2998 39.6734 47.7563 40.3002C47.8476 40.4292 47.939 40.5767 48.012 40.7058C52.3585 47.4163 56.7232 54.1085 61.0697 60.819C61.2158 61.0402 61.3619 61.2799 61.5445 61.4827C62.1654 62.1833 63.1698 62.3492 63.9734 61.8883C64.7404 61.4458 65.1422 60.5056 64.8865 59.6391C64.7769 59.2889 64.5761 58.9755 64.3934 58.6621C60.467 52.2096 56.5041 45.7571 52.6142 39.2678C51.8654 38.0142 51.3358 36.6315 50.7879 35.2857C50.6053 34.8248 50.4227 34.6405 49.9296 34.6589C46.971 34.6773 44.0125 34.6773 41.054 34.6773C40.8714 34.6773 40.634 34.6958 40.287 34.7142ZM50.1487 31.8751C50.1487 31.5617 50.1305 31.3036 50.1487 31.0271C50.2766 29.7919 50.3496 28.5567 50.5505 27.34C50.6966 26.4366 51.4088 26.0679 52.2854 26.2707C53.3446 26.5288 54.4039 26.8238 55.4631 27.0819C58.586 27.893 61.7089 28.7226 64.85 29.5154C65.9092 29.7735 66.8771 29.1651 67.1693 28.1143C67.4433 27.1187 66.9319 26.1416 65.9275 25.7361C65.7083 25.6623 65.5074 25.5886 65.2883 25.5148C60.9784 24.2612 56.6867 22.9892 52.3767 21.754C48.6695 20.6847 45.7657 18.5277 43.7203 15.2278C43.0994 14.2322 42.4967 13.2367 41.8758 12.2412C40.1409 9.43898 38.406 6.61833 36.6893 3.81612C36.2692 3.134 35.7031 2.72842 34.8996 2.78373C33.4568 2.8759 32.7629 4.31388 33.5116 5.69655C36.0501 10.4898 38.6251 15.2831 41.1453 20.0948C41.3827 20.5557 41.4923 21.2009 41.4375 21.7171C41.1819 24.1875 40.8349 26.6394 40.5609 29.1098C40.4696 30.0131 40.4696 30.9165 40.4148 31.8567C43.7021 31.8751 46.898 31.8751 50.1487 31.8751ZM31.2288 7.28201C31.0279 7.57698 30.9001 7.76134 30.7905 7.94569C29.3113 10.3423 27.832 12.739 26.3527 15.1356C24.3439 18.3802 21.5132 20.5741 17.8607 21.6618C15.4135 22.3808 12.9664 23.0998 10.5192 23.8188C8.43726 24.4271 6.3736 25.0355 4.29168 25.6439C3.45161 25.8835 2.88547 26.4182 2.75764 27.3031C2.64806 28.1327 2.95852 28.7964 3.6525 29.2573C4.25516 29.6628 4.89435 29.6075 5.55179 29.4232C9.45996 28.3908 13.3864 27.3584 17.2946 26.3444C18.6825 25.9757 19.3217 26.3629 19.5226 27.8193C19.7052 29.1466 19.7965 30.4924 19.9243 31.8382C23.102 31.8382 26.3162 31.8382 29.5669 31.8382C29.4939 28.5383 29.1652 25.312 28.599 22.1227C28.4529 21.3115 28.526 20.6294 28.9277 19.892C30.3705 17.2925 31.7402 14.6378 33.1281 12.0015C33.2559 11.7619 33.329 11.3563 33.2194 11.1351C32.6168 9.863 31.941 8.62781 31.2288 7.28201ZM19.1208 17.5138C20.6914 17.5138 22.0063 16.5551 22.5541 15.0434C23.4307 12.573 21.8602 9.6049 19.3399 8.95965C17.6233 8.53563 15.9797 9.23619 15.1396 10.7479C13.569 13.6423 15.8518 17.5322 19.1208 17.5138ZM50.9157 17.5138C53.6368 17.4953 55.8283 14.7116 55.2622 11.9462C54.8239 9.73395 52.9246 8.46189 50.7514 8.94122C48.5781 9.42054 46.898 11.854 47.2085 14.0848C47.5007 16.1495 48.9617 17.5138 50.9157 17.5138Z" fill="#004F9F"/>
<path d="M29.6217 47.3979C30.3705 47.4163 30.9549 48.0063 30.9366 48.7621C30.9366 49.518 30.334 50.1264 29.5852 50.1264C28.8182 50.1264 28.2155 49.4811 28.2338 48.7068C28.2703 47.951 28.873 47.3795 29.6217 47.3979Z" fill="#004F9F"/>
</g>
<defs>
<clipPath id="clip0_107_60">
<rect width="70" height="70" fill="white"/>
</clipPath>
</defs>
</svg>
