<svg width="63" height="79" viewBox="0 0 63 79" fill="none" xmlns="http://www.w3.org/2000/svg">
<g clip-path="url(#clip0_106_27)">
<path d="M57.2033 0C61.3483 1.77754 63.1402 4.68343 63 9.2432C62.7351 17.559 61.208 25.6738 58.8551 33.6341C58.7616 33.9278 58.6837 34.2215 58.6057 34.5152C58.5902 34.5615 58.6057 34.6079 58.6057 34.747C59.977 35.1489 60.1484 36.169 60.0549 37.452C59.4004 46.216 58.8083 54.98 58.185 63.7595C57.9824 66.5727 57.8889 69.4168 57.5461 72.2144C57.0787 76.0941 53.7596 78.9382 49.8016 78.9691C45.6567 79.0155 41.5117 78.9845 37.3668 78.9845C28.4225 78.9845 19.4781 79 10.5493 78.9845C6.48231 78.9845 3.05417 76.2178 2.52436 72.4308C2.25946 70.4987 2.18155 68.5357 2.0413 66.5881C1.52708 59.4625 1.02844 52.3369 0.51422 45.2113C0.342813 42.8773 0.171406 40.5433 0.0311633 38.2094C-1.69128e-06 37.7302 0.155823 37.251 0.202571 36.7719C0.233736 36.5246 0.296066 36.2618 0.249318 36.0299C-0.451894 32.2894 0.82587 29.8163 4.33193 28.2551C5.09547 27.9151 5.90576 27.6523 6.79396 27.3123C5.85901 26.2767 4.83057 25.5811 3.45931 25.4884C2.44645 25.4111 1.85431 24.8546 1.90106 24.0509C1.94781 23.2007 2.64902 22.6598 3.66188 22.7216C5.22013 22.7989 6.56023 23.4326 7.76008 24.3909C8.05614 24.6228 8.35221 24.8855 8.72619 25.2101C8.14964 23.2935 8.32105 21.6087 9.39624 20.0321C9.5209 19.8621 9.48973 19.5375 9.44299 19.3211C8.43012 15.4878 10.1754 12.1027 13.8684 10.6652C14.1021 10.5725 14.3671 10.2324 14.4138 9.98513C14.7722 7.40383 16.1902 5.67267 18.5899 4.68343C18.8081 4.59069 19.0418 4.35883 19.1353 4.14244C20.3196 1.15926 23.14 -0.0772843 26.1474 1.08198C26.3812 1.17472 26.6928 1.14381 26.9265 1.06652C29.7158 -0.0618274 32.4739 1.17472 33.5023 4.01878C33.5958 4.26609 33.8919 4.54432 34.1568 4.6216C36.4474 5.36353 37.9278 6.86284 38.6913 9.11955C38.7692 9.36686 38.9251 9.64508 39.1432 9.76873C41.1534 10.8971 42.4934 12.551 43.1323 14.7613C43.1479 14.8231 43.2102 14.885 43.3037 15.0086C43.5998 14.3903 43.8491 13.8184 44.1608 13.262C45.6879 10.4952 47.1526 7.68206 48.8199 5.00802C49.5835 3.78693 50.6587 2.68949 51.8118 1.80845C52.8402 1.02015 54.1647 0.602817 55.3646 0.0309137C55.9567 0 56.58 0 57.2033 0ZM2.85159 38.4721C2.96067 40.0796 3.05417 41.5171 3.14766 42.9546C3.59955 49.2146 4.03586 55.4592 4.48775 61.7192C4.72149 64.9961 4.8929 68.2884 5.22013 71.5653C5.50062 74.3629 7.63542 76.2023 10.4714 76.2023C23.514 76.2178 36.5409 76.2178 49.5835 76.2023C52.5442 76.2023 54.6945 74.0847 54.8659 71.1325C55.0062 68.6439 55.1932 66.1553 55.3646 63.6668C55.91 55.9229 56.4709 48.179 57.0163 40.4351C57.0631 39.6932 57.1098 38.9358 57.1566 38.1321C56.0658 38.6112 55.0529 38.9977 54.0868 39.4923C51.3287 40.9143 48.6641 40.7906 46.0618 39.1213C44.2543 37.962 42.4934 37.962 40.6859 39.1059C37.8031 40.9143 34.8892 40.9452 31.9908 39.1059C30.2144 37.962 28.4692 38.0084 26.6772 39.1059C23.7945 40.8679 20.8805 40.9916 17.9822 39.1059C16.237 37.9775 14.5229 37.993 12.7309 39.044C9.73905 40.7906 6.73163 40.7288 3.75538 38.9667C3.50606 38.8431 3.24116 38.704 2.85159 38.4721ZM36.7591 37.4983C36.8526 37.5756 36.9461 37.6684 37.024 37.7456C37.7875 37.3901 38.5667 37.081 39.2835 36.6482C40.7482 35.7672 42.3065 35.3498 44.0205 35.4889C45.4541 35.5971 46.7007 36.2 47.9006 36.9419C49.2718 37.8075 50.7054 37.9311 52.2013 37.2819C52.9805 36.9419 53.7752 36.6173 54.5231 36.2C54.8659 36.0145 55.2243 35.659 55.3334 35.3035C58.2006 26.694 59.9302 17.8836 60.1952 8.81041C60.2419 7.49658 59.9458 6.26003 59.3225 5.10076C57.9824 2.55038 55.8165 2.02485 53.6038 3.84876C52.4974 4.76071 51.4534 5.84269 50.7366 7.04833C49.1316 9.70691 47.6512 12.4428 46.28 15.2405C44.0049 19.8775 41.7767 24.53 39.7042 29.2598C38.5511 31.9339 37.7408 34.747 36.7591 37.4983ZM21.6597 26.864C21.6908 24.3136 22.8595 22.4897 24.2464 20.7586C24.9787 19.8466 24.9631 19.8312 23.9814 19.2438C22.8751 18.5637 22.1583 16.8789 22.3765 15.4569C22.5634 14.2358 23.4984 13.2929 24.8541 12.9992C27.6589 12.3809 30.4638 11.7781 33.2842 11.1908C34.749 10.8816 36.1981 11.7318 36.6656 13.1229C37.1019 14.4212 37.211 15.6887 36.2449 16.848C35.98 17.1726 35.98 17.4972 36.4163 17.7445C37.5226 18.3627 38.5978 18.9965 39.7042 19.6302C41.6676 17.0025 40.3431 13.092 37.0084 11.8863C36.4007 11.6699 36.1046 11.4072 36.0579 10.7116C35.9176 8.54764 34.3126 7.12561 32.0999 7.11015C31.648 7.11015 31.1961 7.11015 30.7131 7.11015C30.791 5.73449 31.2429 4.32792 29.7002 3.58599C28.2822 2.90589 27.4563 4.00333 26.5526 4.86891C25.5553 3.9415 24.5892 2.92135 23.0777 3.58599C21.5506 4.25064 21.6597 5.68812 21.5973 7.06378C20.0079 7.03287 18.6367 7.32655 17.7173 8.68675C16.7823 10.0624 17.2966 11.4999 17.6394 12.9992C15.6137 12.9992 13.7126 13.1538 12.5751 15.0086C11.422 16.8789 11.9206 18.641 13.0581 20.2949C11.0947 22.2888 10.861 22.8607 11.422 24.1436C15.6137 21.5778 18.8081 23.2471 21.6597 26.864ZM21.7687 37.7611C22.953 32.9695 20.0235 28.3633 17.0784 26.2612C16.0811 25.5502 14.9124 25.4574 13.8372 26.0448C12.8711 26.5858 11.9518 27.2195 11.1259 27.946C9.98837 28.9662 8.72619 29.6772 7.26144 30.1409C6.18625 30.4809 5.14222 30.9601 4.17611 31.5474C3.00742 32.2585 2.63344 33.4486 2.82043 34.7625C2.85159 34.9943 3.023 35.3035 3.22557 35.4271C3.98912 35.9063 4.7994 36.3236 5.57853 36.7564C7.40168 37.7766 9.256 37.8384 11.048 36.7564C14.0242 34.9634 16.907 35.0252 19.8209 36.8646C20.3819 37.251 21.0519 37.452 21.7687 37.7611ZM27.5187 19.3056C27.7368 20.4031 27.4252 21.2377 26.833 22.0106C26.3344 22.6598 25.8202 23.3089 25.3683 24.0045C24.5736 25.1947 24.2931 26.5085 24.5736 27.8996C24.8073 29.1362 25.0722 30.3573 25.3839 31.5784C25.4462 31.7948 25.8202 32.0421 26.0851 32.073C28.2666 32.3821 30.1989 31.7793 32.0376 30.6046C33.4712 29.6772 35.0606 28.9662 36.5721 28.1315C36.8993 27.946 37.2577 27.6832 37.4136 27.3741C37.9434 26.2612 38.3641 25.1019 38.8939 23.989C39.1276 23.479 39.0965 23.0771 38.6913 22.7525C37.6785 21.9642 36.6812 21.145 35.606 20.4803C34.6087 19.8775 33.6738 19.2747 33.3777 18.0382C31.3831 18.4555 29.4821 18.8728 27.5187 19.3056ZM35.7618 31.6866C35.7151 31.6247 35.6683 31.5629 35.606 31.5011C32.77 33.5414 29.8872 35.3962 26.0695 34.8398C26.1786 35.3189 26.2721 35.6744 26.3656 36.0763C29.1393 34.9943 31.648 35.3962 34.0322 37.0346C34.6399 35.1798 35.2008 33.4332 35.7618 31.6866ZM33.627 13.9575C32.7076 14.1585 31.9441 14.3285 31.1961 14.4985C29.4353 14.885 27.6589 15.2405 25.8981 15.6578C25.6488 15.7196 25.4774 16.1215 25.2748 16.3688C25.5709 16.5079 25.8513 16.7398 26.1474 16.7552C26.5214 16.7707 26.8954 16.6161 27.2849 16.5234C29.3574 16.0751 31.4143 15.6423 33.4868 15.1477C33.7361 15.0859 34.0166 14.7768 34.0945 14.5294C34.1101 14.3749 33.7517 14.1121 33.627 13.9575Z" fill="#004F9F"/>
<path d="M16.0655 70.9006C13.6814 70.9006 11.2973 70.9006 8.91318 70.9006C8.60153 70.9006 8.2743 70.9006 7.99381 70.8233C7.30818 70.6223 6.96537 70.1277 6.99653 69.4476C7.0277 68.7984 7.40168 68.3502 8.07172 68.1956C8.28988 68.1492 8.5392 68.1338 8.77294 68.1338C13.6503 68.1338 18.512 68.1338 23.3893 68.1338C23.623 68.1338 23.8568 68.1338 24.0905 68.1802C24.7917 68.3347 25.1657 68.7675 25.1969 69.4785C25.2125 70.1741 24.8541 70.6533 24.1684 70.8387C23.9035 70.916 23.6075 70.916 23.327 70.916C20.8805 70.9006 18.4808 70.9006 16.0655 70.9006Z" fill="#004F9F"/>
<path d="M14.7099 65.3362C12.7153 65.3362 10.7207 65.3362 8.72619 65.3362C8.10289 65.3362 7.54192 65.2125 7.18352 64.6406C6.71605 63.8523 7.13678 62.8476 8.04056 62.6312C8.32104 62.5694 8.60153 62.554 8.88201 62.554C12.7465 62.554 16.6109 62.554 20.4598 62.554C20.6624 62.554 20.8805 62.554 21.0831 62.5849C21.8934 62.6931 22.3765 63.2186 22.3765 63.9605C22.3765 64.7025 21.8778 65.2898 21.0831 65.3207C19.8677 65.3826 18.6522 65.3516 17.4368 65.3516C16.5174 65.3516 15.6137 65.3362 14.7099 65.3362Z" fill="#004F9F"/>
<path d="M13.2451 59.7717C11.718 59.7717 10.1909 59.7871 8.66386 59.7717C7.60425 59.7562 6.96537 59.2152 6.98095 58.3805C6.99654 57.5613 7.61984 57.0203 8.61711 57.0049C11.718 56.9894 14.8345 56.9894 17.9354 57.0049C19.2288 57.0049 19.9456 58.025 19.4158 59.0297C19.1041 59.6016 18.5899 59.7717 17.9822 59.7717C16.4084 59.7717 14.8345 59.7717 13.2451 59.7717Z" fill="#004F9F"/>
<path d="M49.0693 33.0931C48.5395 33.0004 47.9941 32.9231 47.4799 32.784C46.0463 32.4285 44.9555 32.9076 44.3322 34.206C43.8959 35.118 43.1947 35.458 42.4155 35.1334C41.652 34.8088 41.4027 34.036 41.7767 33.1086C42.7272 30.7591 45.3762 29.4144 47.8694 30.0326C49.8951 30.5273 50.534 30.249 51.5313 28.4715C51.9209 27.7605 52.6844 27.4977 53.3856 27.8223C54.0557 28.1315 54.3361 28.8734 54.0712 29.6617C53.3856 31.6247 51.3131 33.0467 49.0693 33.0931Z" fill="#004F9F"/>
<path d="M49.973 20.1248C50.534 20.233 51.0794 20.3257 51.6404 20.4648C53.0116 20.8049 54.1024 20.3103 54.7257 19.0428C55.1932 18.0845 55.9256 17.7444 56.7047 18.1309C57.4371 18.4864 57.6708 19.2747 57.2812 20.1866C56.284 22.5515 53.6661 23.8344 51.1417 23.2007C49.1939 22.7061 48.4927 23.0152 47.5578 24.7464C47.1682 25.4729 46.4202 25.7511 45.719 25.4265C45.0334 25.1174 44.7373 24.3909 45.0022 23.618C45.6723 21.6087 47.7292 20.1866 49.973 20.1248Z" fill="#004F9F"/>
<path d="M52.6688 10.8971C53.074 10.9589 53.4791 11.0208 53.8842 11.1135C55.2555 11.4381 55.8009 11.2063 56.4709 9.96971C56.7982 9.36689 57.2812 9.02684 57.9824 9.13504C58.6369 9.24324 59.0576 9.66057 59.1355 10.3098C59.1667 10.6034 59.0888 10.928 58.9797 11.2063C58.1694 13.262 55.91 14.4213 53.744 13.9421C51.9832 13.5402 51.7962 13.6175 50.7989 15.1941C50.3938 15.8279 49.7081 16.0443 49.0537 15.766C48.368 15.4724 48.0564 14.7922 48.2901 14.0503C48.8355 12.2419 50.6743 10.9435 52.6688 10.8971Z" fill="#004F9F"/>
</g>
<defs>
<clipPath id="clip0_106_27">
<rect width="63" height="79" fill="white"/>
</clipPath>
</defs>
</svg>
