<svg width="75" height="75" viewBox="0 0 75 75" fill="none" xmlns="http://www.w3.org/2000/svg">
<g clip-path="url(#clip0_106_36)">
<path d="M75 10.6959C74.6332 11.9251 74.3764 13.2094 73.8811 14.3835C73.4776 15.3375 72.7806 16.1448 72.2487 17.0438C72.047 17.3923 71.8452 17.7776 71.8085 18.1629C71.5701 21.2267 70.2678 23.7585 68.0301 25.85C67.4248 26.4004 66.9296 27.0792 66.4343 27.7397C63.518 31.6475 59.6662 34.0508 54.8239 34.6746C50.4035 35.2434 46.35 34.1609 42.755 31.5007C42.4982 31.3172 42.2597 31.1338 41.9296 30.8769C41.9296 32.6382 41.9296 34.2893 41.9296 36.0323C45.1761 35.9038 47.9824 36.9129 50.1101 39.4447C51.5774 41.1876 52.3111 43.224 52.3111 45.499C52.3111 47.2969 51.8342 48.9665 50.8988 50.4892C49.945 52.012 48.661 53.1678 47.047 53.9934C45.4512 54.8006 43.7087 55.0208 41.9296 54.9657C41.9112 55.1859 41.8929 55.3326 41.8929 55.4611C41.8929 57.9929 41.8929 60.5247 41.8929 63.0932C42.4248 63.1299 43.0484 63.1299 43.6721 63.2032C46.6985 63.6069 48.9729 66.2121 48.8628 69.1291C48.7528 72.3397 46.3316 74.7982 43.1585 74.9633C42.1497 75.0183 41.471 74.4679 41.416 73.6056C41.361 72.7067 41.9296 72.1379 42.9751 72.0462C44.9927 71.8627 46.2216 70.3216 45.8731 68.4503C45.6346 67.1844 44.5525 66.1754 43.2502 66.0653C42.6266 66.0102 41.9846 66.0469 41.3243 66.0469C41.0308 67.2211 40.7924 68.3953 40.4439 69.5327C39.9853 71.0005 39.4718 72.4315 38.9398 73.8808C38.7014 74.5413 38.2429 74.9449 37.5275 74.9449C36.8122 74.9449 36.317 74.5413 36.1152 73.8808C35.3448 71.4775 34.5928 69.0557 33.8958 66.6157C33.7491 66.1387 33.584 66.0102 33.1255 66.0102C31.6398 66.0102 30.1357 66.0836 28.6684 65.8818C25.8254 65.4965 23.8995 63.827 23.0558 61.0934C22.1937 58.3231 22.8907 55.883 24.9633 53.8833C26.394 52.5073 28.1732 52.012 30.1174 51.9936C31.0895 51.9936 32.0616 51.9936 33.0704 51.9936C33.0704 47.6272 33.0704 43.3158 33.0704 39.0044C29.4387 38.2338 25.6603 41.0592 25.3302 44.7284C25.2201 46.0127 25.4219 47.1869 25.9354 48.361C26.1189 48.7646 26.2289 49.26 26.1556 49.682C26.0455 50.2874 25.5686 50.691 24.9083 50.7461C24.2297 50.8011 23.7344 50.4709 23.4409 49.8654C21.9369 46.8016 21.9002 43.7377 23.606 40.7656C25.3852 37.6651 28.1548 36.1056 31.7131 35.9772C32.1533 35.9589 32.5936 35.9772 33.0704 35.9772C33.0704 34.271 33.0704 32.6015 33.0704 30.9136C32.0433 31.5557 31.0528 32.2712 30.0073 32.84C23.8995 36.124 16.0125 35.0782 10.9685 30.3082C10.0881 29.4826 9.33603 28.5102 8.52899 27.5929C7.44682 26.3637 6.32796 25.1895 5.31916 23.9053C4.01688 22.2358 3.37492 20.2727 3.1915 18.1629C3.15482 17.7409 2.95305 17.2639 2.69627 16.9337C0.990472 14.8605 0.0917191 12.4755 9.62941e-06 9.77859C-0.0366742 8.45765 0.770369 7.79718 2.07264 8.12741C4.65885 8.75119 7.22672 9.43 9.81292 9.99874C10.7117 10.2006 11.6471 10.2372 12.5825 10.2372C15.6823 10.2739 18.7821 10.3106 21.8819 10.2372C25.587 10.1455 28.3749 12.4755 29.0169 15.8696C29.4387 18.0528 30.9428 19.1719 33.0888 19.0435C33.0888 18.1262 33.1255 17.2089 33.0704 16.2916C33.0521 16.0897 32.8137 15.8512 32.6119 15.7228C27.6596 12.2553 27.6412 5.04522 32.5569 1.57775C33.7308 0.752166 35.0881 0.348545 36.4637 0.0183105C37.1423 0.0183105 37.8393 0.0183105 38.518 0.0183105C39.8936 0.348545 41.2326 0.733819 42.4248 1.57775C47.3404 5.04522 47.3221 12.2553 42.3881 15.7228C42.1864 15.8696 41.9296 16.0897 41.9296 16.2916C41.8746 17.2089 41.9112 18.1262 41.9112 19.0435C44.0572 19.1719 45.5613 18.0711 45.9831 15.8879C46.6251 12.5122 49.4314 10.1822 53.1181 10.2556C56.2179 10.329 59.3177 10.2923 62.4175 10.2556C63.3346 10.2556 64.2883 10.2006 65.1871 10.0171C67.7366 9.44835 70.2495 8.80623 72.7806 8.18245C73.9545 7.88891 74.3764 8.07237 75.0183 9.09977C75 9.61347 75 10.1639 75 10.6959ZM3.1915 11.4298C3.99854 15.1908 7.35511 18.1078 11.0235 18.3097C12.3074 18.383 13.6097 18.3463 14.8936 18.4197C15.7557 18.4748 16.2693 19.0435 16.2876 19.8324C16.306 20.6213 15.7924 21.2634 14.9487 21.2818C13.3162 21.3001 11.6838 21.3185 10.0514 21.1533C8.89583 21.0249 7.75863 20.5846 6.60309 20.2727C6.62143 20.3278 6.63977 20.4011 6.65812 20.4929C7.88702 23.6851 10.9318 25.7399 14.5268 25.8133C15.3155 25.8317 16.0858 25.795 16.8745 25.8317C17.9567 25.8867 18.5987 26.7857 18.2869 27.7397C18.0484 28.4552 17.4615 28.7304 16.7462 28.7487C15.7007 28.7487 14.6735 28.7487 13.4446 28.7487C13.8848 29.079 14.1783 29.3358 14.4901 29.5376C20.1027 33.262 27.1093 32.5648 32.025 27.8681C32.777 27.1526 33.2172 26.4371 33.1071 25.3547C32.9971 24.2722 33.0888 23.1898 33.0888 22.2358C32.0066 21.9789 31.0162 21.8689 30.1357 21.5203C27.8613 20.5846 26.6324 18.7867 26.1005 16.4016C25.6236 14.2368 24.2847 13.2461 22.0836 13.2277C19.1306 13.2277 16.1776 13.2094 13.2245 13.2277C11.0785 13.2461 8.98754 12.9709 6.93325 12.4205C5.72268 12.0535 4.51212 11.76 3.1915 11.4298ZM41.8929 22.0156C41.8929 23.1348 41.9663 24.1988 41.8746 25.2262C41.7645 26.3637 42.1864 27.1159 42.9934 27.8681C47.9274 32.5281 54.879 33.2069 60.4732 29.5009C60.785 29.2808 61.0785 29.0423 61.5187 28.712C60.2898 28.712 59.2627 28.7304 58.2355 28.712C57.2451 28.6937 56.5664 28.0699 56.6031 27.226C56.6214 26.4004 57.2634 25.8133 58.2355 25.795C58.9692 25.7766 59.7029 25.795 60.4365 25.795C63.1511 25.7399 65.4255 24.7125 67.113 22.5477C67.6632 21.8505 68.0301 21.0249 68.4886 20.2727C68.4336 20.2177 68.3602 20.181 68.3052 20.1259C65.7924 21.4652 63.0594 21.3552 60.3632 21.3185C59.3177 21.3001 58.7124 20.713 58.7308 19.8507C58.7491 18.9885 59.3544 18.4381 60.3999 18.4014C61.2069 18.383 62.0139 18.4014 62.821 18.4014C65.4806 18.4014 67.7916 17.5391 69.6442 15.5944C70.7263 14.4569 71.4784 13.1176 71.8269 11.4665C71.46 11.5582 71.1849 11.6132 70.9098 11.6866C67.9017 12.4388 64.9303 13.3011 61.7938 13.2277C58.7674 13.1543 55.741 13.2094 52.7146 13.2094C50.752 13.2277 49.4131 14.3101 48.9362 16.2182C48.8628 16.5301 48.7711 16.8236 48.6977 17.1355C48.3126 18.6032 47.4872 19.7774 46.2949 20.6947C44.9927 21.6303 43.562 22.0156 41.8929 22.0156ZM38.9032 52.012C38.9032 40.3437 38.9032 28.7487 38.9032 17.1905C37.931 17.1905 37.014 17.1905 36.0602 17.1905C36.0602 28.7854 36.0602 40.3803 36.0602 52.012C37.0323 52.012 37.9494 52.012 38.9032 52.012ZM37.4725 2.93538C34.3727 2.95373 31.7865 5.55892 31.7865 8.62276C31.8049 11.7233 34.4094 14.3101 37.4908 14.2918C40.5906 14.2734 43.1952 11.6683 43.1768 8.60442C43.1768 5.52223 40.5723 2.91704 37.4725 2.93538ZM41.9296 38.986C41.9296 43.3708 41.9296 47.6822 41.9296 52.012C44.6075 52.1954 46.8085 51.3515 48.2759 49.1316C49.7799 46.8566 49.8349 44.4349 48.4043 42.0866C46.9553 39.7199 44.6992 38.8576 41.9296 38.986ZM33.1438 54.9841C32.0066 54.9841 31.0345 54.9841 30.0624 54.9841C29.7506 54.9841 29.4387 55.0208 29.1086 55.0575C27.2744 55.296 25.7887 56.7637 25.6053 58.5433C25.4035 60.5614 26.4857 62.4694 28.3933 62.873C29.9523 63.2032 31.6031 63.1299 33.1255 63.2216C33.1438 60.3779 33.1438 57.7177 33.1438 54.9841ZM37.5092 69.0924C38.9765 64.3591 39.0682 59.6991 38.9215 55.0208C37.931 55.0208 37.014 55.0208 36.0602 55.0208C35.9318 59.7358 36.0051 64.3958 37.5092 69.0924Z" fill="#004F9F"/>
</g>
<defs>
<clipPath id="clip0_106_36">
<rect width="75" height="75" fill="white"/>
</clipPath>
</defs>
</svg>
