<svg width="85" height="60" viewBox="0 0 85 60" fill="none" xmlns="http://www.w3.org/2000/svg">
<g clip-path="url(#clip0_107_39)">
<path d="M2.0083e-05 13.7584C0.0443718 13.5794 0.133075 13.4004 0.155251 13.1991C0.864878 9.61967 4.50172 7.65099 7.87244 9.01564C8.04985 9.08276 8.22726 9.14987 8.5599 9.30647C8.5599 8.79193 8.5599 8.36687 8.5599 7.94182C8.5599 7.22593 8.53772 6.48768 8.5599 5.77179C8.67077 2.41609 11.0879 -0.0223899 14.3034 0.0223528C17.4302 0.0447242 19.8696 2.57269 19.8918 5.88365C19.9139 9.79864 19.8918 13.6913 19.8918 17.6062C19.8918 17.8971 19.8918 18.2103 19.8918 18.5458C20.8231 18.5458 21.6658 18.5458 22.6637 18.5458C22.6637 18.2326 22.6637 17.8971 22.6637 17.5839C22.6637 14.6309 22.6416 11.6778 22.6637 8.70244C22.6859 5.92839 24.4378 3.8926 27.0989 3.64651C28.0746 3.55703 29.0947 3.8926 30.1592 4.0492C32.2437 1.02906 34.6609 0.357923 37.6324 2.17C38.7856 0.715865 40.2714 -0.156618 42.2007 0.0447242C44.13 0.223695 45.4605 1.27515 46.3475 3.06486C47.5229 2.50557 48.7204 2.23712 50.0287 2.55032C52.1133 3.06486 53.7099 4.94405 53.7764 7.11407C53.8208 8.94853 53.7764 10.8054 53.8208 12.6398C53.8208 13.0201 53.9982 13.4675 54.2643 13.736C55.6836 15.2573 57.1693 16.7338 58.6329 18.2103C58.8104 18.3892 59.0765 18.5906 59.3204 18.5906C61.2275 18.613 63.1346 18.613 65.1526 18.613C65.1526 18.2326 65.1526 17.8971 65.1526 17.5839C65.1526 13.736 65.1305 9.88812 65.1526 6.04025C65.1748 3.15434 66.7715 0.939579 69.2774 0.246066C72.9142 -0.760645 76.3736 1.90155 76.4845 5.74942C76.5067 6.91273 76.4845 8.07604 76.4845 9.32884C77.8594 8.72481 79.1456 8.41161 80.5205 8.72481C83.0264 9.30647 84.9335 11.4989 84.9557 14.0939C85 21.387 85.0222 28.6577 84.9557 35.9508C84.9113 39.8434 80.964 42.4385 77.3494 41.0738C77.1054 40.9843 76.8393 40.8725 76.4845 40.7382C76.4845 42.0134 76.5067 43.1991 76.4845 44.3848C76.418 46.9351 74.8213 49.0604 72.4929 49.7763C70.1866 50.4921 67.725 49.6644 66.2836 47.7405C65.4409 46.6219 65.1526 45.3467 65.1526 43.9821C65.1748 40.179 65.1526 36.3982 65.1526 32.5951C65.1526 32.2595 65.1526 31.9463 65.1526 31.5212C64.7978 31.4989 64.5317 31.4765 64.2656 31.4765C62.9572 31.4765 61.6489 31.5883 60.3627 31.4541C58.9434 31.2975 58.1673 31.8121 57.4576 33.0872C55.5505 36.6443 53.4216 40.0671 51.4258 43.5794C51.1375 44.0716 50.9601 44.7203 50.9601 45.302C50.9158 49.2841 50.9379 53.2886 50.9379 57.2707C50.9379 59.1722 50.0953 60.0223 48.2103 60.0223C42.4668 60.0223 36.701 60.0223 30.9575 60.0223C29.1834 60.0223 28.3186 59.1499 28.3186 57.3602C28.3186 53.4899 28.2964 49.5973 28.3186 45.727C28.3186 44.5861 28.0525 43.5347 27.4759 42.5503C26.611 41.0514 25.7462 39.5526 25.0587 37.9866C24.6152 37.0022 24.3934 35.9284 24.216 34.8546C24.0386 33.7807 24.0386 32.7069 23.9721 31.5436C22.6637 31.5436 21.311 31.5436 19.8696 31.5436C19.8696 31.8344 19.8696 32.1253 19.8696 32.4385C19.8696 36.3758 19.8918 40.3132 19.8696 44.2505C19.8474 46.51 18.8717 48.2998 16.8537 49.3736C14.9465 50.3803 13.0172 50.3132 11.1766 49.1499C9.57998 48.1432 8.67077 46.6443 8.58207 44.7203C8.51554 43.4452 8.5599 42.17 8.5599 40.783C8.29379 40.8725 8.11638 40.8948 7.96115 40.9619C4.52389 42.4161 0.887054 40.4698 0.133075 36.7785C0.0887235 36.5995 0.0221959 36.4206 -0.0221558 36.2192C2.0083e-05 28.7248 2.0083e-05 21.2528 2.0083e-05 13.7584ZM26.8106 31.4989C26.9215 32.7517 26.9658 33.915 27.1433 35.0559C27.5202 37.3825 28.8951 39.2394 30.0261 41.208C30.7801 42.5279 31.1793 43.915 31.1571 45.4138C31.1349 49.0156 31.1571 52.6174 31.1571 56.2192C31.1571 56.51 31.1571 56.8009 31.1571 57.0917C36.8784 57.0917 42.4668 57.0917 48.1216 57.0917C48.1216 56.7338 48.1216 56.4429 48.1216 56.1297C48.1216 52.5279 48.1438 48.9262 48.0994 45.3244C48.0994 44.1163 48.3877 43.0425 48.9865 41.991C52.2241 36.4429 55.4618 30.8948 58.6773 25.3467C59.52 23.8926 59.4091 23.0872 58.256 21.9239C55.0626 18.6801 51.8693 15.4362 48.676 12.1924C48.4986 12.0134 48.3212 11.8344 48.1438 11.6778C47.3898 11.0962 46.5915 11.2528 46.1036 12.0805C45.1722 13.6465 45.4161 15.7047 46.6802 17.0246C48.2547 18.6353 49.8291 20.2461 51.4036 21.8344C52.712 23.1543 52.4902 24.1834 50.7827 24.8098C49.053 25.4362 47.5007 26.3982 46.148 27.651C44.3739 29.3065 43.1764 31.2975 42.3781 33.557C42.0454 34.4966 41.2914 34.8769 40.4931 34.5637C39.6948 34.2505 39.4065 33.5123 39.717 32.5503C39.8278 32.2147 39.9609 31.8792 40.0939 31.4765C35.7475 31.4989 31.3788 31.4989 26.8106 31.4989ZM68.0133 25.0335C68.0133 31.208 68.0133 37.3602 68.0133 43.5347C68.0133 43.8702 68.0133 44.2058 68.0355 44.5414C68.1464 45.9284 69.1887 47.0022 70.5192 47.1364C71.9828 47.2707 73.2247 46.3982 73.5573 44.9888C73.646 44.6085 73.6682 44.2058 73.6682 43.8255C73.6682 31.2975 73.6682 18.7696 73.6682 6.24159C73.6682 5.79416 73.646 5.34674 73.5351 4.92168C73.136 3.40043 71.4949 2.52795 70.0092 3.02012C68.7008 3.44517 68.0355 4.45188 68.0355 6.04025C67.9912 12.349 68.0133 18.7024 68.0133 25.0335ZM11.3984 24.9664C11.3984 31.1633 11.3984 37.3602 11.3984 43.557C11.3984 43.915 11.3984 44.2729 11.4206 44.6532C11.5536 45.9731 12.5959 47.0246 13.9264 47.1364C15.7892 47.293 17.0754 45.9955 17.0754 43.915C17.0754 31.3199 17.0754 18.7472 17.0754 6.15211C17.0754 5.83891 17.0532 5.52571 17.0089 5.23488C16.7206 3.736 15.4566 2.77403 13.9486 2.88589C12.4185 3.02012 11.4206 4.25054 11.4206 6.04025C11.3984 12.349 11.3984 18.6577 11.3984 24.9664ZM8.5599 25.0559C8.5599 21.6778 8.5599 18.2998 8.5599 14.9441C8.5599 14.5861 8.5599 14.2282 8.49337 13.8702C8.31596 12.5727 7.2737 11.5883 5.9875 11.4541C4.72347 11.3199 3.45945 12.1029 3.06029 13.3333C2.90506 13.8255 2.8607 14.3848 2.8607 14.8993C2.83853 21.6555 2.8607 28.3892 2.8607 35.1454C2.8607 35.5704 2.88288 35.9955 2.94941 36.3982C3.19334 37.6286 4.27996 38.5458 5.54398 38.5906C7.29587 38.6577 8.51554 37.4049 8.53772 35.4586C8.58207 31.9687 8.5599 28.5235 8.5599 25.0559ZM76.5067 24.9888C76.5067 28.4564 76.5067 31.9015 76.5067 35.3691C76.5067 35.7494 76.5067 36.1521 76.6176 36.5324C76.9946 37.9194 78.3029 38.7472 79.7444 38.5458C81.1414 38.3669 82.1615 37.1588 82.1615 35.5928C82.1615 28.5906 82.1615 21.5883 82.1615 14.5861C82.1615 12.7293 81.0084 11.4317 79.3674 11.4094C77.6598 11.4094 76.5067 12.7069 76.5067 14.6085C76.5067 18.076 76.5067 21.5436 76.5067 24.9888ZM19.9361 28.5906C20.4905 28.5906 20.9562 28.5906 21.4219 28.5906C27.9194 28.5906 34.4169 28.5906 40.9145 28.5682C41.2693 28.5682 41.7571 28.4787 41.9345 28.255C43.6199 25.906 45.7266 24.0716 48.3434 22.7517C47.6116 22.0581 46.9241 21.387 46.2367 20.7159C43.8417 23.6689 41.6241 24.0045 38.209 21.8121C36.4128 23.4452 34.3948 23.6018 32.2437 22.5951C31.1793 24.6309 29.5826 25.7718 27.3428 25.5928C24.837 25.4139 23.3734 23.8702 22.7524 21.4989C21.7989 21.4989 20.9118 21.4989 19.9805 21.4989C19.9361 23.8479 19.9361 26.1745 19.9361 28.5906ZM36.8341 12.2819C36.8341 10.3356 36.8341 8.38924 36.8341 6.42056C36.8341 4.9888 35.9692 4.0492 34.7052 4.0492C33.4412 4.0492 32.5763 4.96642 32.5542 6.39819C32.532 10.2684 32.532 14.1387 32.5763 18.0313C32.5763 18.5235 32.7537 19.0828 33.0199 19.5078C33.4855 20.2908 34.5056 20.5369 35.3705 20.2684C36.2354 20 36.8119 19.1946 36.8119 18.1432C36.8563 16.1745 36.8341 14.2282 36.8341 12.2819ZM39.6726 11.5883C39.6726 13.8255 39.6504 16.0402 39.6726 18.2774C39.6726 19.217 40.2492 19.9776 41.0697 20.2684C41.9124 20.5593 42.8881 20.2908 43.4869 19.5973C44.1078 18.8814 43.9747 18.1655 43.5534 17.3602C42.622 15.5704 42.3781 13.6018 43.2207 11.7897C43.886 10.3579 43.9082 8.9709 43.9082 7.49439C43.9082 6.7785 43.9304 6.04025 43.9082 5.32437C43.886 4.92168 43.8417 4.47425 43.6864 4.11631C43.3094 3.19909 42.3337 2.72929 41.3801 2.90826C40.4044 3.08723 39.6948 3.93734 39.6726 4.9888C39.6504 7.18119 39.6726 9.37358 39.6726 11.5883ZM29.7378 14.6756C29.7378 12.7293 29.7378 10.783 29.7378 8.8143C29.7378 7.38253 28.8951 6.42056 27.6533 6.39819C26.4336 6.37582 25.5244 7.33779 25.5244 8.76956C25.5022 12.6398 25.5022 16.51 25.5244 20.3803C25.5244 21.8121 26.4336 22.774 27.6533 22.7517C28.8951 22.7293 29.7378 21.7673 29.7378 20.3356C29.7378 18.4787 29.7378 16.5772 29.7378 14.6756ZM61.5158 21.4765C62.9129 24.1611 61.5602 26.2863 60.1631 28.5235C61.8928 28.5235 63.4895 28.5235 65.1083 28.5235C65.1083 26.1521 65.1083 23.8255 65.1083 21.4765C63.9108 21.4765 62.7798 21.4765 61.5158 21.4765ZM46.7911 8.47873C48.4764 8.3445 49.7848 9.03801 50.9601 10.3803C50.9601 9.14987 50.9823 8.16553 50.9601 7.20356C50.9158 6.35345 50.4501 5.74942 49.6739 5.41385C48.8978 5.07828 48.166 5.21251 47.5007 5.74942C46.6802 6.46531 46.7024 7.4049 46.7911 8.47873Z" fill="#004F9F"/>
</g>
<defs>
<clipPath id="clip0_107_39">
<rect width="85" height="60" fill="white"/>
</clipPath>
</defs>
</svg>
