<svg width="55" height="91" viewBox="0 0 55 91" fill="none" xmlns="http://www.w3.org/2000/svg">
<g clip-path="url(#clip0_114_270)">
<path d="M39.7449 91C38.6735 91 37.7296 91 36.7347 91C36.7092 90.7211 36.6837 90.4929 36.6837 90.2393C36.6837 86.1064 36.6582 81.9482 36.7092 77.8153C36.7092 77.2574 36.9133 76.6236 37.2449 76.1672C39.898 72.2878 42.5765 68.4592 45.2551 64.6052C48.6225 59.7623 50.7908 54.4631 51.7347 48.5299C50.7398 48.5299 49.7959 48.4792 48.8776 48.5807C48.6225 48.606 48.2908 49.0878 48.2143 49.392C47.3214 52.815 45.8929 56.0097 43.9541 58.9763C42.449 61.2836 40.8674 63.5403 39.2347 65.7715C38.0102 67.445 36.301 68.2563 34.2347 68.2563C29.7194 68.2563 25.2041 68.2563 20.6633 68.2563C18.8776 68.2563 17.2449 67.6732 16.1735 66.2786C12.5765 61.6386 9.13266 56.8972 7.29593 51.2176C7.09184 50.5584 6.86225 49.8991 6.7347 49.2145C6.63266 48.6821 6.40307 48.4792 5.84184 48.5046C5.02552 48.5553 4.18368 48.5046 3.13776 48.5046C3.59695 50.3302 3.92858 52.0797 4.43878 53.7785C5.56123 57.5057 7.2194 60.9794 9.43878 64.1741C12.1684 68.1042 14.9235 72.0089 17.602 75.9643C18.0102 76.5475 18.2653 77.3589 18.2653 78.0435C18.3163 82.3031 18.2908 86.5882 18.2908 90.9239C17.2959 90.9239 16.3265 90.9239 15.2296 90.9239C15.2296 90.5943 15.2296 90.2647 15.2296 89.9351C15.2296 86.2079 15.2551 82.4806 15.2041 78.7281C15.2041 78.1702 15 77.5364 14.6684 77.08C12.0663 73.2513 9.38776 69.4987 6.76021 65.6701C3.08674 60.2694 0.867354 54.2856 7.46176e-06 47.82C-0.255095 46.0198 0.28062 45.4366 2.09184 45.4366C3.80103 45.4366 5.53572 45.462 7.24491 45.4366C8.21429 45.4112 8.80103 45.8423 9.08164 46.7551C9.43878 47.8707 9.7449 48.9863 10.102 50.102C10.9694 52.8403 12.2194 55.3759 13.801 57.7593C15.1531 59.7877 16.5816 61.7654 17.9847 63.7685C18.5459 64.5798 19.3367 65.0869 20.5357 65.163C18.801 63.0331 18.0102 60.7258 18.2908 58.1396C18.5714 55.5534 19.7704 53.4489 21.8367 51.8768C25.2551 49.2399 30.102 49.392 33.3674 52.2065C37.1174 55.4519 37.4745 59.813 34.3878 65.0869C34.4388 65.163 34.4898 65.2391 34.5153 65.3405C35.1786 64.9348 36.0714 64.6812 36.5051 64.1234C39.7704 59.7623 43.0612 55.4012 44.7194 50.102C45.0765 48.961 45.4337 47.82 45.7908 46.6537C46.0459 45.8169 46.6327 45.4366 47.5 45.4366C49.3367 45.462 51.199 45.4366 53.0357 45.4366C54.4643 45.4366 55.051 46.1466 54.8725 47.5411C53.9796 54.4377 51.5561 60.7512 47.551 66.4561C45.051 70.0058 42.5765 73.5809 40.1276 77.156C39.8469 77.5617 39.6684 78.1449 39.6684 78.6266C39.7194 82.7595 39.7449 86.8417 39.7449 91ZM21.3776 59.1538C21.3776 62.526 24.1072 65.2391 27.5 65.2137C30.8163 65.2137 33.5714 62.5007 33.5969 59.1791C33.6225 55.8576 30.8418 53.0685 27.5 53.0685C24.1072 53.0685 21.3776 55.7815 21.3776 59.1538Z" fill="#004F9F"/>
<path d="M27.6531 15.061C29.4388 13.2101 31.6837 12.1705 34.3623 12.0945C39.7704 11.9677 43.5204 16.2527 42.7296 21.6027C42.1939 25.1778 40.3317 28.0936 38.0357 30.7559C35.3061 33.9507 32.0663 36.613 28.597 38.9964C27.8827 39.4782 27.2194 39.5289 26.4796 39.0471C22.6021 36.3595 18.9796 33.3675 16.0714 29.6657C14.1327 27.1809 12.5765 24.5186 12.2704 21.3238C12.0153 18.2051 12.8572 15.4667 15.4847 13.6158C18.2653 11.6634 21.3265 11.5874 24.3623 12.9566C25.5102 13.4637 26.5051 14.3004 27.6531 15.061ZM39.7449 20.7406C39.7449 17.4191 38.0357 15.3653 35.2041 15.1371C32.5765 14.9343 30.4847 15.9485 29.1072 18.2305C28.7245 18.8897 28.3674 19.4982 27.4745 19.4729C26.6582 19.4475 26.2755 18.915 25.9184 18.2558C25.1276 16.8106 23.9031 15.8471 22.2959 15.3653C18.0612 14.0975 14.5408 17.1148 15.4082 21.4506C15.6888 22.8198 16.199 24.1889 16.8878 25.406C19.3878 29.7164 23.1633 32.8351 27.1174 35.7256C27.2959 35.8524 27.7296 35.827 27.9082 35.7002C31.4541 33.114 34.7959 30.2996 37.3214 26.6484C38.699 24.7975 39.6684 22.769 39.7449 20.7406Z" fill="#004F9F"/>
<path d="M14.3878 9.25463C13.75 9.91386 13.0612 10.5985 12.4745 11.2323C11.0204 9.81244 9.61736 8.4179 8.23981 7.04872C8.87756 6.38948 9.54083 5.70489 10.1786 5.04565C11.5816 6.46555 12.9847 7.83473 14.3878 9.25463Z" fill="#004F9F"/>
<path d="M44.8469 5.1217C45.4847 5.75559 46.148 6.41482 46.7602 7.02335C45.3827 8.39253 43.9796 9.78707 42.551 11.207C41.9643 10.5984 41.2755 9.91385 40.6378 9.27996C42.0408 7.91078 43.4439 6.51624 44.8469 5.1217Z" fill="#004F9F"/>
<path d="M28.9796 5.98384C27.9847 5.98384 27.0663 5.98384 26.0714 5.98384C26.0714 4.00613 26.0714 2.05378 26.0714 0C26.9898 0 27.9592 0 28.9796 0C28.9796 1.95235 28.9796 3.93006 28.9796 5.98384Z" fill="#004F9F"/>
<path d="M1.58163 24.1635C1.58163 23.1493 1.58163 22.2112 1.58163 21.2477C3.57143 21.2477 5.53572 21.2477 7.57653 21.2477C7.57653 22.1858 7.57653 23.1493 7.57653 24.1635C5.61225 24.1635 3.64796 24.1635 1.58163 24.1635Z" fill="#004F9F"/>
<path d="M47.4745 21.197C49.4898 21.197 51.4286 21.197 53.4439 21.197C53.4439 22.1605 53.4439 23.124 53.4439 24.1636C51.4796 24.1636 49.4898 24.1636 47.4745 24.1636C47.4745 23.1747 47.4745 22.1859 47.4745 21.197Z" fill="#004F9F"/>
</g>
<defs>
<clipPath id="clip0_114_270">
<rect width="55" height="91" fill="white"/>
</clipPath>
</defs>
</svg>
