<svg width="74" height="74" viewBox="0 0 74 74" fill="none" xmlns="http://www.w3.org/2000/svg">
<g clip-path="url(#clip0_107_64)">
<path d="M74 46.9715C73.7683 48.323 73.6525 49.6937 73.2471 50.9872C72.7065 52.7826 71.9922 54.5202 71.2778 56.2384C70.8917 57.1844 70.0616 57.474 69.2893 57.1072C68.4785 56.7211 68.2275 55.8909 68.7294 54.9449C70.4477 51.605 71.1813 48.0334 71.1234 44.288C71.0848 41.8554 71.1234 39.4229 71.1041 36.9903C71.1041 35.9478 70.3512 35.1176 69.3859 34.9825C68.4012 34.8473 67.4553 35.3879 67.1657 36.3146C67.0498 36.6814 67.0498 37.0675 67.0498 37.4537C67.0305 40.1951 67.0305 42.9366 67.0498 45.6973C67.0884 49.0759 65.9301 51.9332 63.4975 54.3078C60.8719 56.8755 58.3235 59.4818 55.7172 62.0688C55.5241 62.2619 55.3504 62.455 55.1187 62.5901C54.5395 62.9762 53.8252 62.899 53.3425 62.397C52.8599 61.9144 52.7634 61.1808 53.1495 60.6016C53.3039 60.3892 53.497 60.1962 53.6707 60.0031C56.2578 57.4161 58.8641 54.8291 61.4318 52.2228C62.8218 50.8134 62.3198 48.5932 60.4858 48.0527C59.5012 47.7631 58.6517 48.0334 57.9181 48.767C55.9296 50.7748 53.9217 52.744 51.9525 54.7519C51.3733 55.331 50.7748 55.6206 49.9447 55.6785C46.3152 55.8523 43.5737 57.6478 41.4886 60.5244C39.5194 63.2272 38.5155 66.2776 38.4769 69.6175C38.4576 70.5249 38.4769 71.4516 38.4769 72.359C38.4576 73.3243 37.8591 73.9807 37.0096 73.9614C36.1795 73.9421 35.6003 73.3049 35.6003 72.359C35.581 70.2739 35.6775 68.1695 35.1756 66.1038C34.4419 63.1114 32.9747 60.5244 30.7159 58.4007C28.8046 56.6052 26.5072 55.7172 23.9202 55.6206C23.2638 55.6013 22.7811 55.389 22.3178 54.9256C20.2327 52.8213 18.1477 50.7169 16.024 48.6512C15.1745 47.821 14.0162 47.6665 13.0316 48.2457C12.0856 48.7863 11.5643 49.906 11.9118 50.9679C12.0663 51.4698 12.3945 51.9718 12.7806 52.3386C15.3676 54.9642 17.9932 57.5512 20.5802 60.1769C21.5262 61.1229 21.2559 62.4743 20.0397 62.7059C19.6149 62.7832 18.9778 62.6094 18.6882 62.3198C15.6765 59.366 12.6648 56.4122 9.76885 53.3618C7.83824 51.3154 7.0467 48.7477 7.02739 45.9483C7.02739 43.0138 7.02739 40.0793 7.02739 37.1255C7.02739 35.8126 6.21654 34.9439 5.05818 34.9246C3.99634 34.9053 2.97312 35.6775 2.99243 36.72C3.03104 40.7936 2.62562 44.8672 3.30133 48.9021C4.05426 53.3232 6.13931 57.0879 9.32481 60.2541C12.935 63.8643 16.5453 67.4745 20.1555 71.0848C20.3485 71.2778 20.5416 71.4516 20.6961 71.6639C21.1015 72.2431 21.0243 73.0154 20.5416 73.5173C20.059 74 19.3446 74.0772 18.7461 73.6911C18.5338 73.5366 18.3407 73.3436 18.1477 73.1698C14.5374 69.5596 10.9272 65.9494 7.31698 62.3391C2.41325 57.5512 -2.90014e-06 51.7208 -2.90014e-06 44.8672C-2.90014e-06 42.2222 -0.0193089 39.5773 0.0193031 36.9131C0.0579152 34.4033 1.98852 32.299 4.42108 32.0866C6.98878 31.8549 9.22828 33.4573 9.76885 35.9478C9.88468 36.4304 9.88468 36.9517 9.88468 37.4537C9.90399 40.2144 9.88468 42.9945 9.88468 45.7553C9.88468 46.1607 9.88468 46.5661 9.88468 47.1453C10.1357 46.9329 10.2708 46.8364 10.3673 46.7399C12.5682 44.539 15.8116 44.4811 18.0704 46.6819C19.9817 48.5546 21.8544 50.4659 23.7657 52.3386C23.9974 52.551 24.3063 52.7826 24.5959 52.802C30.2139 53.3232 33.8435 56.5666 36.4112 61.3159C36.5849 61.6441 36.7587 62.0109 36.9324 62.3391C36.9324 62.3584 36.971 62.3584 37.0483 62.397C37.1448 62.2233 37.2413 62.0495 37.3378 61.8565C39.2298 58.0918 41.8362 55.0221 45.9483 53.5549C46.9523 53.1881 48.0334 53.0336 49.1145 52.8599C49.6358 52.7826 50.0412 52.5896 50.4273 52.2035C52.1649 50.4273 53.9796 48.7284 55.6786 46.9136C58.1304 44.2687 61.9144 44.5776 63.845 46.875C63.8836 46.9329 63.9609 46.9522 64.096 47.0488C64.1153 46.5854 64.1539 46.18 64.1539 45.7939C64.1539 42.7821 64.1153 39.7704 64.1925 36.7586C64.2311 34.7508 65.2737 33.2836 67.1077 32.4727C68.9804 31.6619 70.7373 31.9514 72.3011 33.2449C73.2471 34.0172 73.7104 35.0983 74.0193 36.2567C74 39.8283 74 43.3999 74 46.9715Z" fill="#004F9F"/>
<path d="M37.4344 0C40.7743 1.96921 43.2841 4.67206 44.6548 8.3402C46.5468 13.3598 46.0256 18.167 43.2455 22.7425C43.1297 22.9356 43.0138 23.1479 42.8787 23.3796C44.037 23.4375 45.1375 23.4375 46.2186 23.5534C53.5356 24.3256 59.5591 30.3877 60.2734 37.6661C60.5437 40.4268 60.4858 40.5233 57.9567 41.6045C50.2729 44.9058 41.2956 41.701 37.4151 34.2875C37.2992 34.0558 37.1641 33.8435 36.9903 33.5346C36.8166 33.8628 36.6814 34.1138 36.5463 34.3647C32.3376 42.3188 22.3178 45.2533 14.4795 40.8322C13.881 40.4847 13.5914 40.0021 13.5914 39.3071C13.5528 31.4495 19.9045 24.3449 27.7041 23.534C28.8046 23.4182 29.905 23.4182 31.102 23.341C31.0055 23.1672 30.9283 22.9935 30.8124 22.839C25.8122 14.827 28.2833 4.86512 36.4691 0.0965301C36.5077 0.0772241 36.527 0.0386121 36.5656 0C36.8552 0 37.1448 0 37.4344 0ZM40.2338 26.9705C40.5427 27.1636 40.755 27.318 40.9867 27.4339C43.2455 28.7467 45.5429 30.0402 47.7824 31.3723C48.1685 31.604 48.516 32.0094 48.6705 32.4148C48.8829 32.9554 48.6705 33.5153 48.1878 33.8821C47.6473 34.2875 47.0681 34.2682 46.5082 33.94C44.4232 32.743 42.3381 31.5267 40.2724 30.3298C39.809 30.0595 39.3264 29.8085 38.8051 29.4996C38.8244 29.6734 38.8244 29.7506 38.8244 29.8085C40.4847 37.3765 48.767 41.8941 56.1226 39.1719C57.8795 38.5348 57.6285 38.8823 57.3003 37.1062C56.1612 31.102 51.5471 26.9319 45.4657 26.3141C43.7281 26.179 42.0099 26.372 40.2338 26.9705ZM35.2335 29.4996C33.8048 30.3298 32.4727 31.0827 31.1406 31.8549C29.905 32.5693 28.6888 33.2643 27.4532 33.9786C26.874 34.3068 26.2948 34.2875 25.7735 33.8628C25.2909 33.4767 25.0978 32.9168 25.3295 32.3762C25.5033 31.9708 25.8894 31.5847 26.2755 31.353C28.515 30.0209 30.7738 28.7467 33.0133 27.4339C33.2257 27.2987 33.438 27.1636 33.7662 26.9512C33.4766 26.8547 33.3029 26.7775 33.1291 26.7388C25.3102 24.5959 17.3175 30.0981 16.526 38.1294C16.4873 38.5927 16.6804 38.7086 17.0279 38.863C19.2481 39.809 21.5455 40.1372 23.9395 39.8863C29.3258 39.365 34.1717 34.9825 35.2335 29.4996ZM35.5617 24.0553C35.5617 23.592 35.5617 23.3603 35.5617 23.1286C35.5617 19.8852 35.5617 16.6225 35.5617 13.3791C35.5617 13.2053 35.5617 13.0509 35.5617 12.8771C35.581 11.9504 36.1795 11.3133 37.0096 11.3133C37.8205 11.3133 38.4383 11.9697 38.4576 12.8771C38.4769 16.275 38.4576 19.6728 38.4576 23.0707C38.4576 23.3217 38.4576 23.5727 38.4576 23.9781C38.7279 23.7271 38.9209 23.592 39.0754 23.4182C44.6548 17.7422 43.9791 8.43673 37.6467 3.61023C37.1641 3.24341 36.8359 3.24341 36.3532 3.61023C30.4456 8.10853 29.3838 16.5839 34.0365 22.3757C34.4613 22.8969 34.9439 23.3796 35.5617 24.0553Z" fill="#004F9F"/>
<path d="M62.8218 65.9301C62.706 66.1425 62.5515 66.5672 62.2619 66.8568C60.0804 69.0577 57.8988 71.2586 55.6979 73.4401C54.9836 74.1545 54.1341 74.1738 53.5356 73.5753C52.9178 72.9575 52.9564 72.1273 53.6708 71.413C55.8523 69.2121 58.0532 67.0305 60.2348 64.8297C60.7175 64.347 61.2773 64.1539 61.9337 64.4242C62.4936 64.6559 62.7639 65.1192 62.8218 65.9301Z" fill="#004F9F"/>
<path d="M67.378 61.1229C67.378 61.9145 66.7602 62.5516 65.9687 62.5709C65.1771 62.5709 64.5014 61.8952 64.5207 61.0843C64.54 60.3121 65.1964 59.675 65.988 59.6943C66.7795 59.6943 67.378 60.3314 67.378 61.1229Z" fill="#004F9F"/>
</g>
<defs>
<clipPath id="clip0_107_64">
<rect width="74" height="74" fill="white"/>
</clipPath>
</defs>
</svg>
