<svg width="81" height="81" viewBox="0 0 81 81" fill="none" xmlns="http://www.w3.org/2000/svg">
<g clip-path="url(#clip0_107_78)">
<path d="M48.3641 40.4673C47.4029 40.4673 46.5947 40.4673 45.7427 40.4673C45.7427 32.6574 45.7427 24.8912 45.7427 17.0595C42.2476 17.0595 38.7961 17.0595 35.301 17.0595C35.301 24.8476 35.301 32.6138 35.301 40.4455C34.4272 40.4455 33.5971 40.4455 32.6578 40.4455C32.6578 40.14 32.6578 39.8346 32.6578 39.5074C32.6578 29.8651 32.6578 20.2445 32.6796 10.6022C32.6796 10.0132 32.5267 9.62052 32.0461 9.22785C30.0801 7.63533 28.1359 5.99919 26.1699 4.34123C25.9515 4.49394 25.7549 4.62483 25.5801 4.77754C23.8107 6.26097 22.0413 7.76623 20.2282 9.20603C19.7257 9.62052 19.5728 10.035 19.5728 10.6458C19.5947 20.2227 19.5947 29.7996 19.5947 39.3765C19.5947 39.7037 19.5947 40.031 19.5947 40.4236C18.7427 40.4236 17.9126 40.4236 16.9952 40.4236C16.9952 34.3808 16.9952 28.338 16.9952 22.2297C13.9151 22.2297 10.9223 22.2297 7.86409 22.2297C7.86409 28.2726 7.86409 34.3154 7.86409 40.4236C6.94661 40.4236 6.11652 40.4236 5.22089 40.4236C5.22089 40.14 5.22089 39.8564 5.22089 39.5947C5.22089 33.53 5.22089 27.4654 5.22089 21.3789C5.22089 19.9391 5.61409 19.5683 7.07768 19.5465C10.3544 19.5465 13.6092 19.5465 16.9952 19.5465C16.9952 19.2192 16.9952 18.9356 16.9952 18.652C16.9952 15.5979 17.017 12.5656 16.9952 9.51145C16.9952 8.79154 17.2354 8.28979 17.7816 7.83167C20.2063 5.84649 22.6092 3.83948 25.0121 1.83248C25.9515 1.06895 26.3665 1.04713 27.3058 1.83248C29.7306 3.83948 32.1554 5.8683 34.602 7.89712C35.1044 8.31161 35.3447 8.79154 35.3228 9.446C35.301 11.0385 35.3228 12.6528 35.3228 14.289C38.818 14.289 42.2694 14.289 45.7864 14.289C45.7864 13.9618 45.7864 13.6782 45.7864 13.3946C45.7864 9.53326 45.7864 5.67196 45.7864 1.81067C45.7864 0.41449 46.1796 0 47.5558 0C52.4927 0 57.4296 0 62.3447 0C63.6553 0 64.0922 0.436305 64.0922 1.76703C64.0922 7.80986 64.0922 13.8527 64.0922 19.8955C64.0922 20.2009 64.0922 20.4845 64.0922 20.899C64.4199 20.899 64.7039 20.899 65.0097 20.899C68.0898 20.899 71.1699 20.899 74.25 20.899C75.3422 20.899 75.8665 21.3571 75.8665 22.3824C75.8665 28.2944 75.8665 34.1845 75.8665 40.0964C75.8665 40.2055 75.8447 40.3146 75.8228 40.4455C74.9927 40.4455 74.1845 40.4455 73.2888 40.4455C73.2888 34.8389 73.2888 29.2324 73.2888 23.5605C70.1869 23.5605 67.1942 23.5605 64.1141 23.5605C64.1141 29.167 64.1141 34.7735 64.1141 40.4236C63.2185 40.4236 62.4102 40.4236 61.4927 40.4236C61.4927 27.8363 61.4927 15.2707 61.4927 2.63964C57.102 2.63964 52.8204 2.63964 48.4296 2.63964C48.3641 15.227 48.3641 27.8144 48.3641 40.4673Z" fill="#004F9F"/>
<path d="M59.5922 73.4083C61.7112 71.8812 63.7646 70.3759 65.9272 68.8271C65.3811 68.0635 64.8349 67.3218 64.3107 66.5801C63.1966 65.053 63.3495 64.0495 64.5291 62.5661C66.0801 60.6027 67.5437 58.5739 68.9417 56.5015C69.9684 54.9744 70.9733 54.4945 72.7209 55.0616C73.551 55.3234 74.3811 55.607 75.3204 55.9124C76.1942 53.2728 77.0461 50.655 77.9417 47.9281C78.75 48.1898 79.5364 48.4298 80.4102 48.7134C80.1044 49.6951 79.7985 50.6113 79.5146 51.5276C78.9903 53.1637 78.466 54.7781 77.9199 56.4142C77.3301 58.2249 76.0413 58.8793 74.2281 58.3121C73.4854 58.0721 72.7427 57.8104 71.9782 57.5922C71.7597 57.5268 71.3883 57.5704 71.301 57.7013C69.6626 60.0573 68.0461 62.4352 66.3422 64.9003C66.7791 65.5112 67.3689 66.2965 67.915 67.1037C68.9636 68.6089 68.7451 70.0051 67.2816 71.074C65.2718 72.5575 63.2403 74.0409 61.1869 75.4807C59.8325 76.4406 58.3908 76.2006 57.3859 74.8481C56.9053 74.1936 56.4248 73.5392 55.966 72.8629C55.7257 72.492 55.5073 72.4048 55.0267 72.5793C52.4272 73.5392 49.8058 74.4336 47.0097 75.4153C47.0097 76.0697 47.0097 77.0078 47.0097 77.9458C47.0097 79.9528 45.983 80.9563 43.9951 80.9563C41.6141 80.9563 39.2549 80.9563 36.8738 80.9563C34.9296 80.9563 33.9248 79.931 33.9248 77.9677C33.9248 77.0514 33.9248 76.1134 33.9248 75.328C30.9976 74.39 28.1796 73.4519 25.2524 72.5138C24.75 73.2119 24.1602 74.0191 23.5485 74.8263C22.5218 76.2006 21.0801 76.4406 19.682 75.4371C17.6505 73.9755 15.6189 72.5138 13.6092 71.0304C12.1893 69.9833 11.9927 68.5653 13.0194 67.1255C13.5874 66.3183 14.1553 65.533 14.6796 64.8349C12.8884 62.3916 11.1408 59.9919 9.32767 57.4831C8.51942 57.7449 7.5801 58.0503 6.61893 58.3339C4.93689 58.8575 3.62621 58.1812 3.0801 56.5233C2.27185 54.1018 1.48544 51.6585 0.699031 49.237C0.655341 49.0843 0.611652 48.9316 0.567963 48.7134C1.35437 48.4516 2.14078 48.1898 2.99272 47.9062C3.86651 50.5677 4.74029 53.1855 5.61408 55.8906C6.61893 55.5634 7.5801 55.2798 8.51942 54.9526C9.8301 54.5163 11.0097 54.8653 11.6869 56.0651C13.1068 58.5303 14.767 60.8209 16.6675 62.9151C17.585 63.9186 17.6068 65.0748 16.8204 66.2092C16.2306 67.06 15.6189 67.889 14.9636 68.7834C17.0607 70.3105 19.1359 71.8158 21.2985 73.3865C21.8447 72.6229 22.3908 71.903 22.9369 71.1613C24.051 69.6342 25.0558 69.4597 26.8252 70.1142C29.2063 70.9868 31.6529 71.7721 34.0995 72.4702C35.716 72.9283 36.5024 73.7573 36.5243 75.4589C36.5243 76.3751 36.5243 77.2914 36.5243 78.2731C39.1456 78.2731 41.6796 78.2731 44.3665 78.2731C44.3665 77.3786 44.3665 76.4624 44.3665 75.5462C44.3665 73.67 45.0874 72.9501 46.9223 72.4266C49.3252 71.7503 51.7063 70.965 54.0437 70.0923C55.7913 69.4379 56.818 69.6342 57.932 71.1395C58.4782 71.903 59.0024 72.6229 59.5922 73.4083Z" fill="#004F9F"/>
<path d="M81 43.1724C81 44.045 81 44.8303 81 45.6811C54 45.6811 27.0218 45.6811 0 45.6811C0 44.874 0 44.045 0 43.1724C26.9563 43.1724 53.9563 43.1724 81 43.1724Z" fill="#004F9F"/>
<path d="M64.3107 47.9717C65.0971 48.2116 65.8617 48.4734 66.6262 48.7134C63.7864 58.5739 54.0437 67.9326 40.4345 67.9108C27.0655 67.9108 17.2136 58.7484 14.3083 48.7134C15.0947 48.4734 15.8811 48.2116 16.6238 47.9717C20.9272 58.9447 28.7476 65.2712 40.6092 65.2057C52.3398 65.1621 60.051 58.8357 64.3107 47.9717Z" fill="#004F9F"/>
<path d="M29.9927 11.8239C29.9927 12.6746 29.9927 13.4818 29.9927 14.3326C27.415 14.3326 24.8592 14.3326 22.2379 14.3326C22.2379 13.5254 22.2379 12.6965 22.2379 11.8239C24.7718 11.8239 27.3495 11.8239 29.9927 11.8239Z" fill="#004F9F"/>
<path d="M29.9709 18.3248C29.9709 19.1756 29.9709 19.961 29.9709 20.8336C27.3932 20.8336 24.8374 20.8336 22.216 20.8336C22.216 20.0264 22.216 19.1974 22.216 18.3248C24.8155 18.3248 27.3714 18.3248 29.9709 18.3248Z" fill="#004F9F"/>
<path d="M51.0291 6.54456C51.8811 6.54456 52.6675 6.54456 53.5194 6.54456C53.5194 7.37353 53.5194 8.20251 53.5194 9.07512C52.7112 9.07512 51.8811 9.07512 51.0291 9.07512C51.0291 8.24614 51.0291 7.39535 51.0291 6.54456Z" fill="#004F9F"/>
<path d="M58.7621 9.09697C57.932 9.09697 57.1238 9.09697 56.25 9.09697C56.25 8.268 56.25 7.46083 56.25 6.56641C57.0583 6.56641 57.8883 6.56641 58.7621 6.56641C58.7621 7.39539 58.7621 8.20255 58.7621 9.09697Z" fill="#004F9F"/>
<path d="M50.9854 15.6416C50.9854 14.8126 50.9854 14.0054 50.9854 13.1328C51.8155 13.1328 52.6238 13.1328 53.5194 13.1328C53.5194 13.94 53.5194 14.769 53.5194 15.6416C52.6893 15.6416 51.881 15.6416 50.9854 15.6416Z" fill="#004F9F"/>
<path d="M56.2281 13.0891C57.0801 13.0891 57.8665 13.0891 58.7184 13.0891C58.7184 13.9181 58.7184 14.7471 58.7184 15.6197C57.932 15.6197 57.1019 15.6197 56.2281 15.6197C56.2281 14.7907 56.2281 13.9835 56.2281 13.0891Z" fill="#004F9F"/>
<path d="M51.0073 19.6337C51.881 19.6337 52.6675 19.6337 53.5194 19.6337C53.5194 20.4626 53.5194 21.2698 53.5194 22.1424C52.7111 22.1424 51.881 22.1424 51.0073 22.1424C51.0073 21.3353 51.0073 20.5281 51.0073 19.6337Z" fill="#004F9F"/>
<path d="M58.7621 19.6555C58.7621 20.5063 58.7621 21.3135 58.7621 22.1643C57.9102 22.1643 57.0801 22.1643 56.2281 22.1643C56.2281 21.3353 56.2281 20.5281 56.2281 19.6555C57.0364 19.6555 57.8665 19.6555 58.7621 19.6555Z" fill="#004F9F"/>
</g>
<defs>
<clipPath id="clip0_107_78">
<rect width="81" height="81" fill="white"/>
</clipPath>
</defs>
</svg>
