<svg width="75" height="72" viewBox="0 0 75 72" fill="none" xmlns="http://www.w3.org/2000/svg">
<g clip-path="url(#clip0_108_97)">
<path d="M75 29.6242C74.5106 31.4625 74.0016 33.2813 73.5513 35.1389C72.455 39.4345 71.437 43.7495 70.3015 48.0451C68.8136 53.6178 65.5834 58.0489 60.9632 61.5124C58.8293 63.1185 56.6171 64.6277 54.4048 66.137C54.0133 66.4079 53.8567 66.6788 53.8958 67.1432C53.935 67.8011 53.9154 68.4396 53.8958 69.0975C53.8567 70.7035 52.7212 71.8645 51.0963 71.9999C50.881 72.0193 50.6656 72.0193 50.4307 72.0193C41.8168 72.0193 33.1832 72.0193 24.5693 72.0193C22.1809 72.0193 20.9671 70.9164 21.1041 68.5751C21.202 67.0658 20.7518 66.1177 19.4205 65.305C17.3062 64.0085 15.2897 62.5573 13.3516 61.0093C8.5552 57.2168 5.5599 52.302 4.1895 46.3617C2.95614 40.9244 1.50743 35.5452 0.137033 30.1467C-0.469858 27.728 0.606884 25.4254 2.83868 24.4579C5.10962 23.4711 7.6155 24.2257 8.9859 26.3348C9.29913 26.8185 9.53406 27.3603 9.74941 27.8828C11.0415 31.269 12.314 34.6551 13.5865 38.0413C13.6648 38.2542 13.7627 38.4864 13.8802 38.7379C15.9749 37.693 17.8348 38.1187 19.675 39.3378C23.1793 41.6404 26.7619 43.8656 30.325 46.1101C33.3399 48.0257 35.65 50.5605 37.1574 53.7726C37.2161 53.908 37.2749 54.0435 37.3532 54.1596C37.3727 54.1983 37.4315 54.1983 37.5294 54.2563C37.686 53.9467 37.8426 53.6178 37.9992 53.3082C39.5262 50.3284 41.7189 47.9677 44.5576 46.1488C48.2576 43.7882 51.9577 41.4856 55.6382 39.1056C57.361 37.9833 59.1034 37.8091 61.0415 38.7379C61.1394 38.5057 61.2568 38.2735 61.3352 38.0413C62.6468 34.5584 63.9585 31.0948 65.2702 27.6119C65.9358 25.8898 67.0713 24.632 68.9311 24.1676C71.437 23.5485 74.0016 24.9997 74.7651 27.4377C74.8238 27.6506 74.9021 27.8441 74.9804 28.0569C75 28.56 75 29.0824 75 29.6242ZM35.9045 69.0394C35.9045 65.9048 36.0807 62.8089 35.8653 59.7516C35.6108 56.1139 33.9859 52.9986 31.2843 50.4831C30.5403 49.7866 29.7377 49.148 28.8763 48.6062C25.137 46.2069 21.3782 43.8269 17.6194 41.4469C16.5427 40.7696 15.4659 40.9051 14.8199 41.7758C14.1738 42.6465 14.4088 43.7108 15.4072 44.4848C16.4644 45.2974 17.5215 46.1295 18.5787 46.9422C19.7925 47.8903 21.0063 48.8191 22.2005 49.7672C22.8857 50.309 22.9835 51.1991 22.4745 51.8183C21.9655 52.4568 21.1237 52.5342 20.3798 52.0311C20.2427 51.9344 20.1057 51.8183 19.9687 51.7215C17.776 49.9994 15.5834 48.2579 13.3712 46.5552C11.805 45.3361 11.3547 43.7495 11.6288 41.8532C11.6875 41.4856 11.668 41.0792 11.5505 40.7503C10.1801 37.0738 8.79013 33.3974 7.38057 29.721C7.16522 29.1598 6.96945 28.5794 6.69537 28.0569C6.12764 27.0314 5.14878 26.6637 4.16992 27.0507C3.19107 27.4377 2.77995 28.3278 3.0736 29.4888C4.48316 35.1002 5.95144 40.6922 7.30226 46.323C8.65309 51.9344 11.7659 56.3074 16.4839 59.6355C18.6962 61.1835 20.8888 62.7702 23.101 64.2988C23.7862 64.7632 24.1386 65.3243 24.0799 66.1757C24.0211 67.1238 24.0603 68.072 24.0603 69.0394C28.0736 69.0394 32.0086 69.0394 35.9045 69.0394ZM50.9593 69.0588C50.9593 68.0333 50.9984 67.1045 50.9397 66.1564C50.9005 65.3437 51.2138 64.8019 51.8794 64.3375C54.307 62.6541 56.7541 60.9513 59.1425 59.1905C63.0384 56.3074 65.9358 52.6116 67.2279 47.9483C68.9507 41.7371 70.4189 35.4678 72.0047 29.2372C72.22 28.3665 71.8285 27.5732 71.065 27.1475C70.2428 26.7024 69.3422 26.8185 68.7353 27.4958C68.4221 27.8441 68.1676 28.2891 67.9914 28.7342C66.4644 32.7395 64.9373 36.7643 63.4495 40.789C63.332 41.0986 63.332 41.4856 63.3908 41.8339C63.6648 43.7108 63.2341 45.3168 61.6484 46.5358C60.8653 47.1357 60.0822 47.7548 59.2991 48.374C57.7525 49.5931 56.2059 50.8121 54.6398 52.0118C54.0329 52.4762 53.3477 52.4762 52.8191 52.0698C52.2709 51.6441 52.0947 51.083 52.3297 50.4638C52.4667 50.1349 52.7604 49.8253 53.054 49.5931C55.3054 47.8129 57.5763 46.0714 59.8277 44.2913C60.5521 43.7301 60.7478 42.8013 60.3367 42.008C59.9452 41.234 59.0446 40.8277 58.1832 41.0599C57.9092 41.1373 57.6351 41.2921 57.4002 41.4469C53.6022 43.8462 49.7651 46.2262 46.0063 48.6836C42.0125 51.2958 39.6045 54.9916 39.1543 59.6936C38.8606 62.7315 39.0368 65.8081 38.9976 68.8847C38.9976 68.9234 39.0368 68.9621 39.076 69.0588C42.9914 69.0588 46.9264 69.0588 50.9593 69.0588Z" fill="#004F9F"/>
<path d="M34.1034 9.84892C36.3939 8.92013 38.6257 8.93948 40.8771 9.82957C40.7988 4.77931 42.5215 1.79947 46.2216 0.483691C49.5889 -0.696637 53.289 0.309545 55.4816 3.01849C57.9679 6.09509 57.9092 9.50062 55.2467 13.6414C55.6774 13.8156 56.1081 13.9704 56.5192 14.1832C59.0251 15.5184 60.415 17.5888 60.4934 20.4138C60.5717 22.9873 60.5325 25.5802 60.5129 28.1537C60.4934 29.9338 59.2208 31.1916 57.4002 31.2109C54.8943 31.2303 52.3688 31.2109 49.863 31.2109C49.5889 31.2109 49.3344 31.2109 48.9624 31.2109C48.9624 31.7527 48.9624 32.2558 48.9624 32.7395C48.9624 34.2875 48.982 35.8355 48.9624 37.3641C48.9428 39.1249 47.7486 40.3052 45.9671 40.3439C45.3798 40.3633 44.7925 40.3633 44.2052 40.3439C43.3634 40.3052 42.7956 39.7828 42.7565 39.0088C42.7173 38.1961 43.2263 37.5769 44.0877 37.4802C44.401 37.4415 44.7142 37.4608 45.047 37.4608C45.3407 37.4608 45.6343 37.4608 45.8888 37.4608C45.9475 37.3834 46.0063 37.3447 46.0063 37.306C46.0063 34.6358 46.0846 31.9462 45.9867 29.276C45.9084 27.1862 44.0486 25.5221 41.8168 25.4834C38.9585 25.4254 36.1002 25.4254 33.242 25.4834C30.7948 25.5221 29.0329 27.3603 29.0133 29.7597C28.9937 32.2945 29.0133 34.8293 29.0133 37.4608C29.5811 37.4608 30.1096 37.4608 30.6382 37.4608C31.6954 37.4802 32.3414 38.08 32.3219 38.9701C32.3023 39.8215 31.6562 40.3439 30.6186 40.3633C30.0509 40.3633 29.5028 40.3826 28.935 40.3633C27.3297 40.3052 26.1355 39.1249 26.0963 37.5382C26.0768 35.7194 26.0963 33.9199 26.0963 32.101C26.0963 31.8495 26.0963 31.5786 26.0963 31.2303C25.7831 31.2303 25.5286 31.2303 25.2545 31.2303C22.7682 31.2303 20.2819 31.2303 17.7761 31.2303C15.7792 31.2303 14.5262 29.9919 14.5262 28.0182C14.5262 25.6576 14.5262 23.2969 14.5262 20.9169C14.5262 17.4533 16.2686 14.9959 19.538 13.7769C19.6359 13.7382 19.7142 13.6801 19.7925 13.6414C17.0908 9.51997 17.0321 6.09509 19.4988 3.03784C21.6915 0.328894 25.4699 -0.696637 28.7588 0.503041C32.5176 1.87686 34.26 4.87606 34.1034 9.84892ZM43.6374 22.7551C46.9068 24.2257 47.4941 24.8642 48.845 28.2504C51.7424 28.2504 54.6398 28.2504 57.5176 28.2504C57.5372 28.1343 57.5568 28.0956 57.5568 28.0569C57.5568 25.6382 57.5764 23.2389 57.5568 20.8202C57.5568 18.1112 55.7361 16.331 53.0149 16.3117C50.8223 16.3117 48.61 16.3117 46.4174 16.3117C46.1825 16.3117 45.9475 16.3117 45.6735 16.3117C45.9084 18.8078 45.2428 20.9169 43.6374 22.7551ZM17.4237 28.2891C20.3798 28.2891 23.2576 28.2891 26.1551 28.2891C26.8403 25.5221 28.6022 23.7033 31.3626 22.7938C29.7181 20.8976 29.0721 18.7691 29.2678 16.3504C26.527 16.3504 23.8645 16.2343 21.2216 16.3891C19.1269 16.5052 17.502 18.2467 17.4432 20.259C17.3649 22.8906 17.4237 25.5415 17.4237 28.2891ZM25.9593 13.4092C28.8959 13.3899 31.2647 11.0292 31.2451 8.14615C31.2255 5.2437 28.8567 2.9024 25.9201 2.9024C22.964 2.9024 20.5952 5.26305 20.5952 8.22355C20.6343 11.1066 23.0227 13.4286 25.9593 13.4092ZM54.3657 8.10745C54.3461 5.205 51.9577 2.8637 49.0212 2.88305C46.0846 2.9024 43.7158 5.2437 43.7158 8.14615C43.7158 11.0679 46.1042 13.4092 49.0995 13.3899C52.036 13.3899 54.3657 11.0292 54.3657 8.10745ZM42.7956 17.2792C42.7761 14.3574 40.4268 12.0548 37.4706 12.0548C34.5145 12.0548 32.1652 14.3767 32.1652 17.2985C32.1652 20.2397 34.5341 22.581 37.5294 22.5616C40.4855 22.5423 42.8152 20.201 42.7956 17.2792Z" fill="#004F9F"/>
<path d="M37.5098 40.3633C36.668 40.3826 36.0219 39.7441 36.0219 38.9314C36.0219 38.1768 36.6875 37.4996 37.451 37.4996C38.2537 37.4802 38.9389 38.1574 38.9389 38.9508C38.9389 39.7248 38.3124 40.3439 37.5098 40.3633Z" fill="#004F9F"/>
</g>
<defs>
<clipPath id="clip0_108_97">
<rect width="75" height="72" fill="white"/>
</clipPath>
</defs>
</svg>
