<svg width="66" height="80" viewBox="0 0 66 80" fill="none" xmlns="http://www.w3.org/2000/svg">
<g clip-path="url(#clip0_107_42)">
<path d="M33.3409 0C42.7538 0.199833 50.5172 3.84124 56.8731 10.5246C61.4255 15.3206 64.4165 20.9825 65.4942 27.5548C66.9237 36.3031 65.2303 44.4296 60.3479 51.7791C58.9404 53.8884 57.115 55.7313 55.4215 57.6631C53.5302 59.8168 51.5948 61.9262 49.6375 64.0133C45.173 68.8093 40.6864 73.6053 36.1999 78.4013C34.2206 80.5107 31.8674 80.5107 29.91 78.4013C22.8724 70.8743 15.6808 63.4582 8.84106 55.7535C0.351893 46.2059 -2.11129 35.0153 1.89138 22.8476C5.87205 10.791 14.4272 3.46378 26.7431 0.710519C27.6448 0.510686 28.5685 0.35526 29.4922 0.266445C30.8117 0.133222 32.1533 0.0888149 33.3409 0ZM33.5388 2.66445C32.2193 2.75326 30.9877 2.81987 29.7561 2.93089C29.1183 2.9753 28.5025 3.08632 27.8867 3.21954C16.2306 5.57313 8.1373 12.3453 4.37655 23.6914C0.637797 35.0153 3.01301 45.4066 10.9524 54.2437C17.7481 61.8152 24.8297 69.1424 31.7794 76.5584C32.7031 77.5354 33.3409 77.5576 34.2646 76.5806C37.9813 72.6284 41.7201 68.6761 45.4149 64.7016C48.1859 61.7041 50.7591 58.5068 53.7061 55.7091C64.5925 45.3844 66.9897 27.4882 57.071 14.8321C51.089 7.12739 43.2156 2.9753 33.5388 2.66445Z" fill="#004F9F"/>
<path d="M59.3802 33.4167C59.3582 48.0933 47.5042 59.9501 32.901 59.9279C18.4299 59.9057 6.66378 47.9157 6.70776 33.1946C6.72976 18.6068 18.6278 6.68338 33.055 6.72778C47.6581 6.77219 59.4022 18.6956 59.3802 33.4167ZM49.9014 50.025C57.3789 42.8754 59.8421 29.0647 51.6828 18.4958C43.5455 7.97119 28.4365 6.26151 18.056 14.7877C7.98334 23.0475 7.54349 36.5696 12.1839 44.4075C13.1296 42.7866 14.0753 41.2102 14.999 39.6115C17.8361 34.7933 20.6511 29.9973 23.4662 25.1791C24.1479 24.0245 25.0497 23.2029 26.4132 23.0031C28.2826 22.7145 29.8001 23.5582 30.7018 25.3789C32.6591 29.3312 34.5945 33.3056 36.5298 37.2801C36.6618 37.5687 36.8377 37.8574 36.9917 38.1682C37.1016 38.0572 37.1676 38.0128 37.2116 37.9684C39.3009 35.4594 42.5338 35.7925 44.0513 38.6789C44.7331 39.9668 45.3929 41.2768 46.0526 42.5868C47.3502 45.0514 48.6038 47.5382 49.9014 50.025ZM33.077 36.1921C31.4935 36.6806 29.976 37.1025 28.4805 37.6354C27.3809 38.035 26.5012 37.924 25.7754 36.9915C25.4675 36.5918 25.1596 36.5252 24.6538 36.7916C22.4765 37.9462 20.2552 39.0564 18.078 40.211C17.7921 40.3664 17.5062 40.6329 17.3302 40.9215C16.2086 42.7866 15.131 44.6739 13.9873 46.5391C13.7454 46.9165 13.7454 47.2052 14.0313 47.5604C16.9783 51.5127 20.7611 54.3104 25.4015 55.9756C25.8414 56.1311 26.0833 56.0867 26.3252 55.6648C29.2502 50.891 32.1973 46.1172 35.1223 41.3434C35.2542 41.1435 35.2982 40.7439 35.1883 40.544C34.5285 39.123 33.8027 37.702 33.077 36.1921ZM28.6784 56.8638C35.892 58.0406 42.2259 56.4197 47.922 51.9568C47.3942 50.9132 46.8884 49.9362 46.3825 48.9593C45.3929 47.0497 45.3709 46.9609 43.3476 47.6936C42.094 48.1599 41.0823 48.1155 40.1806 47.0275C40.0267 46.8499 39.5208 46.7611 39.3009 46.8721C37.3436 47.7381 35.4082 48.6484 33.4728 49.581C33.2529 49.692 33.011 49.8252 32.901 50.025C31.5155 52.2454 30.1519 54.4658 28.6784 56.8638ZM31.8674 33.7719C30.6798 31.3739 29.5581 29.0425 28.4145 26.7111C28.1286 26.1338 27.7987 25.6454 27.095 25.6454C26.3912 25.6231 26.0173 26.0894 25.7094 26.6223C23.994 29.5754 22.2566 32.5285 20.5192 35.4816C20.4312 35.637 20.3652 35.7925 20.1673 36.1477C21.7727 35.3262 23.1803 34.5935 24.5878 33.8607C25.3136 33.4833 25.9513 33.5277 26.5232 34.1272C26.7431 34.3714 26.985 34.6157 27.2709 34.7933C27.4908 34.9265 27.8427 35.0375 28.0626 34.9709C29.3162 34.5935 30.5258 34.1938 31.8674 33.7719ZM44.1613 44.6295C43.2816 42.9198 42.4898 41.3212 41.6321 39.7447C41.1263 38.8122 40.0047 38.6123 39.4768 39.4117C38.1793 41.3656 36.9697 43.3861 35.7161 45.3845C36.9697 44.9848 38.1133 44.4741 39.2569 43.9412C39.9607 43.6082 40.5765 43.6748 41.1263 44.2299C41.3682 44.4741 41.5881 44.7183 41.8521 44.896C42.05 45.0292 42.3579 45.1402 42.5778 45.0958C43.0836 45.007 43.5675 44.8294 44.1613 44.6295Z" fill="#004F9F"/>
<path d="M46.2066 23.98C46.2066 26.2003 44.4252 27.9988 42.2479 27.9766C40.0927 27.9766 38.3332 26.1781 38.3112 24.0022C38.3112 21.804 40.0927 20.0055 42.2699 20.0055C44.4252 20.0277 46.2066 21.8262 46.2066 23.98ZM42.2699 25.3344C42.9737 25.3344 43.5675 24.7349 43.5895 24.0244C43.6115 23.2916 42.9737 22.6477 42.2479 22.6699C41.5442 22.6921 40.9724 23.2916 40.9724 24.0244C40.9724 24.7571 41.5662 25.3344 42.2699 25.3344Z" fill="#004F9F"/>
<path d="M43.5895 16.7194C43.5895 16.8748 43.5895 17.0524 43.5895 17.2078C43.5455 18.096 43.0177 18.6955 42.2479 18.6733C41.5002 18.6511 40.9944 18.096 40.9724 17.23C40.9504 16.8748 40.9504 16.5195 40.9724 16.1421C40.9944 15.2539 41.5442 14.6544 42.3139 14.6766C43.0617 14.6988 43.5675 15.2539 43.5895 16.1199C43.5895 16.3419 43.5895 16.5417 43.5895 16.7194Z" fill="#004F9F"/>
<path d="M34.9683 25.3344C34.7264 25.3344 34.4625 25.3566 34.2206 25.3344C33.5168 25.2456 32.989 24.6683 33.033 23.98C33.077 23.2473 33.4948 22.8032 34.2206 22.7144C34.6604 22.67 35.1003 22.6922 35.5402 22.6922C36.3979 22.7144 36.9477 23.2251 36.9697 23.98C36.9917 24.7571 36.4199 25.3122 35.5402 25.3566C35.3642 25.3566 35.1663 25.3344 34.9683 25.3344Z" fill="#004F9F"/>
<path d="M49.5055 22.6921C50.8471 22.6921 51.4848 23.114 51.4848 24.0244C51.4848 24.9347 50.8471 25.3566 49.5275 25.3566C48.1859 25.3566 47.5482 24.9347 47.5482 24.0244C47.5482 23.114 48.164 22.6921 49.5055 22.6921Z" fill="#004F9F"/>
<path d="M43.5895 31.3294C43.5895 31.4182 43.5895 31.4848 43.5895 31.5736C43.5895 32.706 43.1056 33.3055 42.2699 33.3055C41.4342 33.3055 40.9723 32.6838 40.9503 31.5736C40.9503 31.3072 40.9503 31.0186 40.9503 30.7521C40.9943 29.9084 41.5222 29.3533 42.2699 29.3533C43.0177 29.3533 43.5455 29.9084 43.5895 30.7521C43.5895 30.9519 43.5895 31.1296 43.5895 31.3294Z" fill="#004F9F"/>
<path d="M38.927 19.5393C38.7731 19.7391 38.5752 20.2498 38.2233 20.4274C37.8714 20.605 37.2556 20.605 36.9257 20.4052C36.3759 20.0721 35.8921 19.5615 35.5622 19.0064C35.3642 18.6733 35.3862 18.0516 35.5842 17.7185C35.7821 17.3855 36.3099 17.119 36.7278 17.0746C37.4975 17.008 38.9051 18.5179 38.927 19.5393Z" fill="#004F9F"/>
<path d="M47.0203 20.8937C46.4925 20.494 45.9867 20.2942 45.8327 19.9389C45.6788 19.5393 45.7008 18.9398 45.8987 18.5623C46.1626 18.0738 46.6464 17.6742 47.0863 17.3189C47.6581 16.8526 48.2959 16.9414 48.8017 17.4743C49.2856 17.9628 49.3735 18.6067 48.9117 19.1396C48.3619 19.7391 47.7021 20.272 47.0203 20.8937Z" fill="#004F9F"/>
<path d="M38.927 28.4874C38.9051 29.5087 37.4975 31.0186 36.7278 30.952C36.3099 30.9076 35.7821 30.6411 35.5842 30.3081C35.3862 29.975 35.3642 29.3311 35.5622 29.0203C35.8921 28.4652 36.3979 27.9545 36.9257 27.6214C37.2556 27.4216 37.8714 27.4216 38.2233 27.6214C38.5972 27.7991 38.7951 28.2875 38.927 28.4874Z" fill="#004F9F"/>
<path d="M49.1756 29.6642C49.1536 30.5967 48.164 31.3072 47.3942 30.841C46.7564 30.4413 46.1846 29.864 45.7887 29.2423C45.3049 28.4652 45.9647 27.4438 46.8884 27.3772C47.7021 27.3328 49.1756 28.8204 49.1756 29.6642Z" fill="#004F9F"/>
</g>
<defs>
<clipPath id="clip0_107_42">
<rect width="66" height="80" fill="white"/>
</clipPath>
</defs>
</svg>
