<svg width="100" height="100" viewBox="0 0 100 100" fill="none" xmlns="http://www.w3.org/2000/svg">
<path d="M100 50C100 77.6142 77.6142 100 50 100C22.3858 100 0 77.6142 0 50C0 22.3858 22.3858 0 50 0C77.6142 0 100 22.3858 100 50Z" fill="#E4E4E4"/>
<path d="M44.75 53.9375C44.1375 53.9375 43.6195 53.7258 43.196 53.3023C42.7725 52.8788 42.5613 52.3613 42.5625 51.75C42.5625 51.1375 42.7742 50.6195 43.1977 50.196C43.6212 49.7725 44.1387 49.5613 44.75 49.5625C45.3625 49.5625 45.8805 49.7742 46.304 50.1977C46.7275 50.6212 46.9387 51.1387 46.9375 51.75C46.9375 52.3625 46.7258 52.8805 46.3023 53.304C45.8788 53.7275 45.3613 53.9387 44.75 53.9375ZM55.25 53.9375C54.6375 53.9375 54.1195 53.7258 53.696 53.3023C53.2725 52.8788 53.0613 52.3613 53.0625 51.75C53.0625 51.1375 53.2742 50.6195 53.6977 50.196C54.1212 49.7725 54.6387 49.5613 55.25 49.5625C55.8625 49.5625 56.3805 49.7742 56.804 50.1977C57.2275 50.6212 57.4387 51.1387 57.4375 51.75C57.4375 52.3625 57.2258 52.8805 56.8023 53.304C56.3788 53.7275 55.8613 53.9387 55.25 53.9375ZM50 64C53.9083 64 57.2187 62.6437 59.9312 59.9312C62.6437 57.2187 64 53.9083 64 50C64 49.3 63.9562 48.6216 63.8687 47.9647C63.7812 47.3079 63.6208 46.6738 63.3875 46.0625C62.775 46.2083 62.1625 46.318 61.55 46.3915C60.9375 46.465 60.2958 46.5012 59.625 46.5C56.9708 46.5 54.4625 45.9312 52.1 44.7937C49.7375 43.6562 47.725 42.0667 46.0625 40.025C45.1292 42.3 43.7945 44.2763 42.0585 45.954C40.3225 47.6317 38.303 48.8928 36 49.7375V50C36 53.9083 37.3562 57.2187 40.0687 59.9312C42.7812 62.6437 46.0917 64 50 64ZM50 67.5C47.5792 67.5 45.3042 67.0403 43.175 66.121C41.0458 65.2017 39.1938 63.9551 37.6188 62.3813C36.0438 60.8063 34.7972 58.9542 33.879 56.825C32.9608 54.6958 32.5012 52.4208 32.5 50C32.5 47.5792 32.9597 45.3042 33.879 43.175C34.7983 41.0458 36.0449 39.1938 37.6188 37.6188C39.1938 36.0438 41.0458 34.7972 43.175 33.879C45.3042 32.9608 47.5792 32.5012 50 32.5C52.4208 32.5 54.6958 32.9597 56.825 33.879C58.9542 34.7983 60.8063 36.0449 62.3813 37.6188C63.9563 39.1938 65.2034 41.0458 66.1227 43.175C67.0421 45.3042 67.5012 47.5792 67.5 50C67.5 52.4208 67.0403 54.6958 66.121 56.825C65.2017 58.9542 63.9551 60.8063 62.3813 62.3813C60.8063 63.9563 58.9542 65.2034 56.825 66.1227C54.6958 67.0421 52.4208 67.5012 50 67.5ZM47.6375 36.2188C48.8625 38.2604 50.525 39.9013 52.625 41.1415C54.725 42.3817 57.0583 43.0012 59.625 43C60.0333 43 60.4271 42.9778 60.8062 42.9335C61.1854 42.8892 61.5792 42.8384 61.9875 42.7812C60.7625 40.7396 59.1 39.0987 57 37.8585C54.9 36.6183 52.5667 35.9988 50 36C49.5917 36 49.1979 36.0222 48.8187 36.0665C48.4396 36.1108 48.0458 36.1616 47.6375 36.2188ZM36.7438 45.5813C38.2313 44.7354 39.5292 43.6417 40.6375 42.3C41.7458 40.9583 42.5771 39.4563 43.1312 37.7938C41.6437 38.6396 40.3458 39.7333 39.2375 41.075C38.1292 42.4167 37.2979 43.9188 36.7438 45.5813Z" fill="#FCFCFC"/>
</svg>
