<svg width="237" height="63" viewBox="0 0 237 63" fill="none" xmlns="http://www.w3.org/2000/svg">
<path fill-rule="evenodd" clip-rule="evenodd" d="M102.837 15.1555V16.8685C102.837 17.977 102.55 18.8436 101.996 19.4482C101.709 19.7505 101.361 19.9923 100.93 20.1536C100.52 20.2946 100.048 20.3753 99.4949 20.3753C98.4083 20.3753 97.5677 20.0729 96.9937 19.4482C96.4196 18.8436 96.1531 17.977 96.1531 16.8685V10.1776C96.1531 9.06911 96.4401 8.20251 96.9937 7.5979C97.2807 7.2956 97.6292 7.05376 98.0598 6.89253C98.4698 6.7313 98.9413 6.67084 99.4949 6.67084C100.581 6.67084 101.422 6.97314 101.996 7.5979C102.57 8.20251 102.837 9.06911 102.837 10.1776V11.7092H100.335V10.0566C100.335 9.8551 100.315 9.67372 100.274 9.53264C100.233 9.41172 100.192 9.33111 100.13 9.27065C100.069 9.21018 99.9869 9.14972 99.8844 9.12957C99.7819 9.08926 99.6794 9.06911 99.5359 9.06911C99.4129 9.06911 99.2899 9.08926 99.1874 9.12957C99.1054 9.16988 99.0234 9.21018 98.9413 9.27065C98.8798 9.33111 98.8183 9.43187 98.7978 9.53264C98.7568 9.67372 98.7363 9.83495 98.7363 10.0566V16.9895C98.7363 17.191 98.7568 17.3724 98.7978 17.5134C98.8388 17.6344 98.8798 17.715 98.9413 17.7754C99.0028 17.8359 99.0849 17.8964 99.1874 17.9165C99.2899 17.9568 99.3924 17.977 99.5359 17.977C99.6589 17.977 99.7819 17.9568 99.8844 17.9165C99.9664 17.8762 100.048 17.8359 100.13 17.7754C100.192 17.715 100.233 17.6344 100.274 17.5134C100.315 17.3724 100.335 17.2111 100.335 16.9895V14.8935H102.837V15.1555ZM103.903 6.83207H110.525V9.21019H108.372V20.2342H105.789V9.21019H103.636V6.83207H103.903ZM114.892 6.83207C115.445 6.83207 115.917 6.91268 116.327 7.05376C116.757 7.19483 117.106 7.43667 117.393 7.73898C117.68 8.04128 117.885 8.40404 118.028 8.84742C118.172 9.27065 118.233 9.75433 118.233 10.2985V11.9712C118.233 13.0797 117.946 13.9261 117.393 14.5307C117.106 14.833 116.757 15.0547 116.327 15.2159C115.917 15.357 115.425 15.4376 114.892 15.4376H114.195V20.2745H111.57V6.83207H114.892ZM114.195 9.21019V13.0192H114.892C115.138 13.0192 115.322 12.9587 115.445 12.8378C115.507 12.7774 115.548 12.6967 115.568 12.596C115.609 12.4549 115.63 12.2937 115.63 12.072V10.1372C115.63 9.93571 115.609 9.75433 115.568 9.61326C115.548 9.51249 115.486 9.41172 115.445 9.37141C115.384 9.31095 115.322 9.27065 115.24 9.25049C115.138 9.21019 115.035 9.21019 114.912 9.21019H114.195ZM125.881 20.2342H123.564L123.215 17.8964H121.165L120.817 20.2342H118.356C119.074 15.7601 119.812 11.3062 120.53 6.83207H124.015L126.188 20.2342H125.881ZM121.514 15.5989H122.846L122.19 11.2255L121.514 15.5989ZM126.188 6.83207H132.81V9.21019H130.658V20.2342H128.033V9.21019H125.881V6.83207H126.188ZM136.46 12.2332H139.289V14.6113H136.46V17.8158H140.006V20.1939H133.835V6.83207H140.006V9.21019H136.46V12.2332ZM141.441 19.952V6.83207H147.407V9.21019H144.045V20.2342H141.421V19.952H141.441ZM151.323 20.2342H148.925V6.83207H151.323V13.0998C151.877 11.0039 152.615 8.90788 153.271 6.83207H156.018V20.2342H153.599V13.0394C152.963 15.4578 152.225 17.8359 151.528 20.2342H151.323ZM157.248 19.8513C157.289 19.7505 157.33 19.6296 157.351 19.5288C157.371 19.4079 157.392 19.3071 157.412 19.2063C157.433 19.0854 157.433 18.9645 157.433 18.8436C157.433 18.7227 157.433 18.5816 157.433 18.4002V16.4252C157.433 16.0825 157.453 15.7601 157.515 15.4376C157.576 15.1353 157.638 14.8532 157.74 14.5912C157.843 14.309 158.007 14.0873 158.212 13.8858C158.294 13.8052 158.396 13.7246 158.499 13.6641C158.212 13.4424 157.986 13.1804 157.802 12.8378C157.556 12.3541 157.433 11.7697 157.433 11.0643V10.0566C157.433 9.53264 157.494 9.06911 157.617 8.66604C157.74 8.26297 157.945 7.92036 158.212 7.63821C158.478 7.35606 158.827 7.15452 159.278 7.01345C159.688 6.87237 160.18 6.81191 160.754 6.81191H164.137V20.214H161.513V14.9741H161.144C160.939 14.9741 160.775 14.9943 160.631 15.0547C160.508 15.095 160.406 15.1555 160.324 15.2562C160.242 15.3369 160.18 15.4779 160.139 15.6392C160.098 15.8205 160.078 16.0624 160.078 16.3445V18.3599V18.7227V19.025L160.057 19.2668C160.057 19.3474 160.036 19.4079 160.036 19.4683L159.996 19.6296C159.975 19.69 159.975 19.7303 159.954 19.7706C159.934 19.8311 159.913 19.9117 159.872 19.9923L159.811 20.1939H157.084L157.248 19.8513ZM160.857 9.21019C160.713 9.21019 160.59 9.23034 160.488 9.27065C160.406 9.31095 160.324 9.35126 160.283 9.41172C160.221 9.49233 160.18 9.5931 160.139 9.71402C160.098 9.8551 160.078 10.0365 160.078 10.2582V11.5278C160.078 11.9712 160.16 12.2534 160.303 12.3944C160.385 12.4751 160.488 12.5154 160.59 12.5557C160.713 12.596 160.857 12.6161 161.021 12.6161H161.554V9.21019H160.857Z" fill="#E30613"/>
<path fill-rule="evenodd" clip-rule="evenodd" d="M176.294 6.83205C176.848 6.83205 177.319 6.91267 177.73 7.05374C178.16 7.19482 178.509 7.43666 178.796 7.73896C179.083 8.04127 179.288 8.40403 179.431 8.84741C179.575 9.27063 179.636 9.75432 179.636 10.2985V11.9712C179.636 13.0797 179.349 13.9261 178.796 14.5307C178.509 14.833 178.16 15.0547 177.73 15.2159C177.319 15.357 176.827 15.4376 176.294 15.4376H175.597V20.2745H172.973V6.83205H176.294ZM175.618 9.21017V13.0192H176.315C176.561 13.0192 176.745 12.9587 176.868 12.8378C176.93 12.7774 176.971 12.6967 176.991 12.596C177.032 12.4549 177.053 12.2937 177.053 12.072V10.1372C177.053 9.9357 177.032 9.75432 176.991 9.61324C176.971 9.51248 176.909 9.41171 176.868 9.3714C176.807 9.31094 176.745 9.27063 176.663 9.25048C176.561 9.21017 176.458 9.21017 176.335 9.21017H175.618ZM187.673 20.2342H185.356L185.008 17.8964H182.978L182.629 20.2342H180.169C180.887 15.7601 181.625 11.3061 182.342 6.83205H185.828L188.001 20.2342H187.673ZM183.306 15.5988H184.639L183.983 11.2255L183.306 15.5988ZM193.003 10.2582C193.003 9.99616 192.983 9.77447 192.942 9.59309C192.901 9.45201 192.86 9.33109 192.798 9.27063C192.737 9.19002 192.655 9.14971 192.552 9.10941C192.45 9.0691 192.347 9.04894 192.224 9.04894C192.101 9.04894 191.978 9.0691 191.876 9.10941C191.773 9.14971 191.691 9.19002 191.63 9.27063C191.568 9.33109 191.507 9.43186 191.486 9.53263C191.445 9.6737 191.425 9.83493 191.425 10.0566V11.3868H188.985V10.1574C188.985 9.04894 189.272 8.18234 189.805 7.59789C190.092 7.29559 190.441 7.05374 190.871 6.91267C191.281 6.77159 191.753 6.69098 192.286 6.69098C193.372 6.69098 194.213 6.99328 194.787 7.61804C195.361 8.22265 195.628 9.08925 195.628 10.1977V10.5202C195.628 11.7697 195.258 12.6564 194.5 13.1603C194.602 13.2207 194.684 13.3013 194.766 13.382C194.971 13.5835 195.156 13.8052 195.279 14.0672C195.402 14.309 195.484 14.5912 195.545 14.8935C195.607 15.1958 195.628 15.5182 195.628 15.8608V16.8685C195.628 17.977 195.34 18.8436 194.787 19.4482C194.5 19.7505 194.151 19.9923 193.721 20.1536C193.311 20.3148 192.839 20.3752 192.286 20.3752C191.199 20.3752 190.359 20.0729 189.785 19.4482C189.21 18.8436 188.944 17.977 188.944 16.8685V15.1756H191.445V16.9894C191.445 17.191 191.466 17.3724 191.507 17.5134C191.548 17.6344 191.589 17.715 191.65 17.7754C191.712 17.8359 191.794 17.8964 191.896 17.9165C191.999 17.9568 192.101 17.977 192.245 17.977C192.368 17.977 192.491 17.9568 192.573 17.9165C192.655 17.8762 192.737 17.8359 192.819 17.7553C192.88 17.6948 192.921 17.594 192.962 17.453C193.003 17.2917 193.024 17.0701 193.024 16.8081V15.8004C193.024 15.5182 193.003 15.2965 192.962 15.095C192.921 14.9338 192.86 14.7927 192.778 14.7121C192.696 14.6315 192.614 14.571 192.47 14.5106C192.327 14.4702 192.163 14.4299 191.958 14.4299H191.179V12.0518H192.081C192.245 12.0518 192.388 12.0317 192.511 11.9914C192.634 11.9511 192.716 11.9107 192.798 11.8301C192.86 11.7697 192.921 11.6689 192.962 11.548C193.003 11.4069 193.024 11.2054 193.024 10.9837V10.2582H193.003ZM200.507 6.83205C201.655 6.83205 202.496 7.1142 203.029 7.65835C203.295 7.9405 203.5 8.28311 203.623 8.68618C203.746 9.08925 203.808 9.55278 203.808 10.0768V10.5403C203.808 10.8829 203.787 11.2054 203.726 11.4875C203.664 11.7898 203.582 12.0518 203.459 12.2937C203.336 12.5355 203.172 12.7572 202.988 12.9386C202.926 12.999 202.844 13.0595 202.783 13.12C202.906 13.1804 203.008 13.261 203.09 13.3417C203.316 13.5432 203.5 13.7649 203.623 14.047C203.869 14.5509 203.992 15.1756 203.992 15.9012V16.9491C203.992 17.4731 203.931 17.9367 203.787 18.3397C203.644 18.763 203.418 19.1056 203.131 19.4079C202.844 19.69 202.475 19.9117 202.045 20.0528C201.635 20.1939 201.142 20.2543 200.589 20.2543H197.083V6.83205H200.507ZM199.748 14.4501V17.856H200.65C200.794 17.856 200.917 17.8359 201.019 17.7956C201.101 17.7553 201.183 17.715 201.245 17.6545C201.306 17.594 201.347 17.5134 201.388 17.3925C201.429 17.2514 201.45 17.0701 201.45 16.8484V15.7198C201.45 15.4376 201.429 15.2159 201.388 15.0345C201.347 14.8733 201.286 14.7524 201.224 14.6718C201.081 14.5106 200.814 14.4299 200.404 14.4299H199.748V14.4501ZM199.748 9.21017V12.0518H200.281C200.445 12.0518 200.589 12.0317 200.712 11.9914C200.835 11.9511 200.917 11.8906 200.999 11.8301C201.06 11.7697 201.122 11.6689 201.163 11.548C201.204 11.4069 201.224 11.2054 201.224 10.9837V10.2582C201.224 9.85509 201.163 9.57294 201.04 9.41171C200.978 9.35125 200.917 9.29079 200.835 9.27063C200.732 9.23033 200.609 9.21017 200.466 9.21017H199.748ZM207.806 20.2342H205.407V6.83205H207.806V13.0998C208.359 11.0038 209.097 8.90787 209.753 6.83205H212.5V20.2342H210.081V13.0393C209.446 15.4578 208.708 17.8359 208.011 20.2342H207.806ZM213.772 6.83205H220.394V9.21017H218.241V20.2342H215.617V9.21017H213.464V6.83205H213.772ZM223.838 20.2342H221.439V6.83205H223.838V13.0998C224.391 11.0038 225.13 8.90787 225.786 6.83205H228.533V20.2342H226.114V13.0393C225.478 15.4578 224.74 17.8359 224.043 20.2342H223.838ZM229.763 19.8512C229.804 19.7505 229.845 19.6296 229.865 19.5288C229.886 19.4079 229.906 19.3071 229.927 19.2063C229.947 19.0854 229.947 18.9645 229.947 18.8436C229.947 18.7226 229.947 18.5816 229.947 18.4002V16.4251C229.947 16.0825 229.968 15.7601 230.029 15.4376C230.091 15.1353 230.152 14.8532 230.255 14.5912C230.357 14.309 230.521 14.0873 230.726 13.8858C230.808 13.8052 230.911 13.7246 231.014 13.6641C230.726 13.4424 230.501 13.1804 230.316 12.8378C230.07 12.3541 229.947 11.7697 229.947 11.0643V10.0566C229.947 9.53263 230.009 9.0691 230.132 8.66603C230.255 8.26296 230.46 7.92035 230.726 7.6382C230.993 7.35605 231.342 7.15451 231.793 7.01344C232.203 6.87236 232.695 6.8119 233.269 6.8119H236.651V20.214H234.027V14.9741H233.597C233.392 14.9741 233.228 14.9942 233.084 15.0547C232.961 15.095 232.859 15.1555 232.777 15.2562C232.695 15.3369 232.633 15.4779 232.592 15.6392C232.551 15.8205 232.531 16.0624 232.531 16.3445V18.3599V18.7226V19.025L232.51 19.2668C232.51 19.3474 232.49 19.4079 232.49 19.4683L232.449 19.6296C232.428 19.69 232.428 19.7303 232.408 19.7706C232.387 19.8311 232.367 19.9117 232.346 19.9923L232.285 20.1939H229.558L229.763 19.8512ZM233.371 9.21017C233.228 9.21017 233.105 9.23033 233.002 9.27063C232.92 9.31094 232.838 9.35125 232.797 9.41171C232.736 9.49232 232.695 9.59309 232.654 9.71401C232.613 9.85509 232.592 10.0365 232.592 10.2582V11.5278C232.592 11.9712 232.674 12.2534 232.818 12.3944C232.9 12.475 233.002 12.5154 233.105 12.5557C233.228 12.596 233.371 12.6161 233.535 12.6161H234.068V9.21017H233.371Z" fill="#E30613"/>
<path fill-rule="evenodd" clip-rule="evenodd" d="M115.527 27.1468L110.381 42.1008L116.183 58.8282H109.479L105.891 47.9655L102.263 58.8282H96.1531L101.955 42.1008L96.5016 26.2802H103.124L106.404 36.2966L109.766 26.2802H115.835L115.527 27.1468ZM135.578 58.8081H129.96L129.099 53.1449H124.138L123.277 58.8081H117.311C119.074 47.9655 120.837 37.1027 122.6 26.2601H131.068L136.357 58.8081H135.578ZM124.979 47.5825H128.197L126.578 36.9818L124.979 47.5825ZM146.013 47.3205L145.255 48.7313V58.8282H138.899V26.2601H145.255V37.5461L150.667 26.2601H157.166L149.888 40.8714L157.084 58.8081H150.503L146.013 47.3205ZM176.212 58.8081H170.595L169.734 53.1449H164.772L163.911 58.8081H157.945C159.708 47.9655 161.472 37.1027 163.235 26.2601H171.702L176.991 58.8081H176.212ZM165.613 47.5825H168.852L167.233 36.9818L165.613 47.5825ZM195.361 46.5144V50.666C195.361 53.3666 194.664 55.4626 193.311 56.9338C192.614 57.6795 191.753 58.2639 190.707 58.6267C189.702 58.9895 188.554 59.1708 187.242 59.1708C184.598 59.1708 182.568 58.4252 181.174 56.9136C179.8 55.4424 179.124 53.3465 179.124 50.6459V34.4223C179.124 31.7217 179.8 29.6257 181.174 28.1545C181.871 27.4088 182.732 26.8244 183.778 26.4616C184.782 26.0989 185.93 25.9175 187.242 25.9175C189.887 25.9175 191.917 26.6632 193.311 28.1747C194.684 29.6459 195.361 31.7419 195.361 34.4424V38.1507H189.292V34.1401C189.292 33.6363 189.251 33.2131 189.149 32.8906C189.067 32.6085 188.944 32.3868 188.8 32.2255C188.636 32.0643 188.452 31.9434 188.226 31.8628C188.001 31.7822 187.714 31.7419 187.406 31.7419C187.099 31.7419 186.812 31.7822 186.586 31.8628C186.361 31.9434 186.176 32.0643 186.012 32.2255C185.848 32.3868 185.746 32.5883 185.664 32.8705C185.561 33.1929 185.52 33.6161 185.52 34.12V50.9683C185.52 51.4722 185.561 51.8954 185.664 52.2179C185.746 52.5 185.869 52.7015 186.012 52.8426C186.176 53.0039 186.381 53.1248 186.586 53.2054C186.832 53.286 187.099 53.3263 187.427 53.3263C187.755 53.3263 188.021 53.286 188.247 53.2054C188.472 53.1248 188.657 53.0039 188.821 52.8426C188.964 52.7015 189.087 52.4799 189.169 52.2179C189.272 51.8954 189.313 51.4722 189.313 50.9683V45.8493H195.381V46.5144H195.361ZM204.546 58.8081H198.744V26.2601H204.546V41.4559C205.899 36.357 207.662 31.2985 209.261 26.2601H215.924V58.8081H210.081V41.3551C208.523 47.1996 206.76 53.0038 205.058 58.8081H204.546ZM225.601 58.8081H219.799V26.2601H225.601V41.4559C226.954 36.357 228.717 31.2985 230.316 26.2601H236.979V58.8081H231.137V41.3551C229.578 47.1996 227.815 53.0038 226.114 58.8081H225.601Z" fill="#E30613"/>
<path fill-rule="evenodd" clip-rule="evenodd" d="M49.6757 19.166L45.7394 26.7438C44.9603 18.9846 39.3428 12.1727 31.1831 10.1775C26.0167 8.90787 20.8093 9.83493 16.5654 12.334C12.342 14.833 9.08227 18.9242 7.79066 24.0029C6.49905 29.0816 7.44213 34.2006 9.98434 38.3522C11.8295 41.3551 14.4947 43.8541 17.775 45.4866L12.1575 48.7716C10.3124 47.5019 8.65173 45.9904 7.23711 44.3177L0 44.2169L3.40329 38.0902C1.39412 33.3743 0.861073 27.9933 2.21419 22.6526C3.5673 17.332 6.58106 12.8378 10.5789 9.61324L10.6609 2.57965L16.8114 5.86468C21.6293 3.86948 27.1033 3.34549 32.5568 4.67562C38.0102 6.00575 42.6026 9.00863 45.9034 12.999L52.915 12.9184L49.6757 19.166Z" fill="#004F9F"/>
<path fill-rule="evenodd" clip-rule="evenodd" d="M27.3288 25.3935C29.133 25.8369 30.2196 27.6305 29.789 29.404C29.338 31.1775 27.5133 32.2457 25.7092 31.8225C23.905 31.3791 22.8184 29.5854 23.249 27.8119C23.7205 26.0182 25.5452 24.9501 27.3288 25.3935Z" fill="#004F9F"/>
<path d="M34.1764 24.0835C33.0078 22.1689 31.0806 20.6775 28.6819 20.0931C26.2832 19.5086 23.8845 19.9319 21.9369 21.0806C19.9892 22.2294 18.4721 24.1238 17.8775 26.4818C17.283 28.8397 17.7135 31.1977 18.8821 33.1123C20.0507 35.0269 21.9779 36.5182 24.3766 37.1027C26.7753 37.6871 29.174 37.2639 31.1216 36.1152C33.0693 34.9664 34.5864 33.072 35.181 30.714C35.7755 28.356 35.345 25.9981 34.1764 24.0835ZM30.4861 12.9386C34.8939 14.0067 38.4202 16.7476 40.5934 20.2745C42.5001 23.3983 43.3407 27.167 42.7666 30.976L20.8503 43.7332C17.242 42.4232 14.3512 39.9846 12.4651 36.9012C10.2919 33.3541 9.51281 29.0211 10.5994 24.6881C11.686 20.3551 14.4742 16.8887 18.062 14.7524C21.6703 12.6363 26.0987 11.8503 30.4861 12.9386Z" fill="#004F9F"/>
<path d="M34.1764 24.0835C33.0078 22.1689 31.0806 20.6775 28.6819 20.0931C26.2832 19.5086 23.8845 19.9319 21.9369 21.0806C19.9892 22.2294 18.4721 24.1238 17.8775 26.4818C17.283 28.8397 17.7135 31.1977 18.8821 33.1123C20.0507 35.0269 21.9779 36.5182 24.3766 37.1027C26.7753 37.6871 29.174 37.2639 31.1216 36.1152C33.0693 34.9664 34.5864 33.072 35.181 30.714C35.7755 28.356 35.345 25.9981 34.1764 24.0835ZM30.4861 12.9386C34.894 14.0067 38.4202 16.7476 40.5934 20.2745C42.5001 23.3983 43.3407 27.167 42.7666 30.976L20.8503 43.7332C17.242 42.4232 14.3512 39.9846 12.4651 36.9012C10.2919 33.3541 9.51281 29.0211 10.5994 24.6881C11.686 20.3551 14.4742 16.8887 18.062 14.7524C21.6703 12.6363 26.0987 11.8503 30.4861 12.9386Z" stroke="#004F9F" stroke-width="5.106" stroke-miterlimit="22.926"/>
<path d="M65.1955 0L69.2138 11.9712L65.1135 11.7495C61.1772 20.2745 57.2408 28.8196 53.3045 37.3445L52.8945 37.5864L40.2654 45.2246L40.2859 45.1641L10.6199 63L6.35553 55.7447L46.5184 31.6612L55.9492 11.2255L51.6644 10.9837L65.1955 0Z" fill="#E30613"/>
<path fill-rule="evenodd" clip-rule="evenodd" d="M53.571 61.9722H63.3093L81.2279 22.6929H71.51L53.571 61.9722Z" fill="#004F9F"/>
<path fill-rule="evenodd" clip-rule="evenodd" d="M44.7963 61.6699H54.6371L70.8745 25.8772H61.0336L44.7963 61.6699Z" fill="white"/>
<path fill-rule="evenodd" clip-rule="evenodd" d="M44.2632 61.9722H55.0472L71.7151 25.4741H60.9312L44.2632 61.9722ZM46.4774 60.5816H54.1246L69.5009 26.8848H61.8332L46.4774 60.5816Z" fill="#004F9F"/>
<path fill-rule="evenodd" clip-rule="evenodd" d="M63.2478 61.9722H72.9657L87.0708 31.0566H77.353L63.2478 61.9722Z" fill="#E30613"/>
<path d="M54.6166 60.5614H18.6771V61.9722H54.6166V60.5614Z" fill="#004F9F"/>
<path d="M48.5276 54.1526H27.4723V55.5633H48.5276V54.1526Z" fill="#004F9F"/>
<path d="M51.2748 47.7236H38.1332V49.1344H51.2748V47.7236Z" fill="#004F9F"/>
<path d="M54.6166 41.3148H48.5891V42.7255H54.6166V41.3148Z" fill="#004F9F"/>
</svg>
